%TF.GenerationSoftware,KiCad,Pcbnew,(7.0.0)*%
%TF.CreationDate,2023-03-12T03:28:46+03:00*%
%TF.ProjectId,ESP32-DEVKIT-L,45535033-322d-4444-9556-4b49542d4c2e,1*%
%TF.SameCoordinates,PX4260300PY8558f68*%
%TF.FileFunction,Paste,Top*%
%TF.FilePolarity,Positive*%
%FSLAX46Y46*%
G04 Gerber Fmt 4.6, Leading zero omitted, Abs format (unit mm)*
G04 Created by KiCad (PCBNEW (7.0.0)) date 2023-03-12 03:28:46*
%MOMM*%
%LPD*%
G01*
G04 APERTURE LIST*
G04 Aperture macros list*
%AMRoundRect*
0 Rectangle with rounded corners*
0 $1 Rounding radius*
0 $2 $3 $4 $5 $6 $7 $8 $9 X,Y pos of 4 corners*
0 Add a 4 corners polygon primitive as box body*
4,1,4,$2,$3,$4,$5,$6,$7,$8,$9,$2,$3,0*
0 Add four circle primitives for the rounded corners*
1,1,$1+$1,$2,$3*
1,1,$1+$1,$4,$5*
1,1,$1+$1,$6,$7*
1,1,$1+$1,$8,$9*
0 Add four rect primitives between the rounded corners*
20,1,$1+$1,$2,$3,$4,$5,0*
20,1,$1+$1,$4,$5,$6,$7,0*
20,1,$1+$1,$6,$7,$8,$9,0*
20,1,$1+$1,$8,$9,$2,$3,0*%
G04 Aperture macros list end*
%ADD10C,0.254000*%
%ADD11C,0.200000*%
%ADD12R,0.998220X1.099820*%
%ADD13R,0.797560X1.198880*%
%ADD14R,1.099820X0.998220*%
%ADD15R,1.270000X1.524000*%
%ADD16R,1.524000X1.270000*%
%ADD17R,0.800000X0.800000*%
%ADD18R,0.635000X1.016000*%
%ADD19R,0.381000X1.016000*%
%ADD20R,1.200000X1.800000*%
%ADD21RoundRect,0.050800X-1.000000X-0.450000X1.000000X-0.450000X1.000000X0.450000X-1.000000X0.450000X0*%
%ADD22RoundRect,0.050800X-0.450000X-1.000000X0.450000X-1.000000X0.450000X1.000000X-0.450000X1.000000X0*%
%ADD23R,0.780000X0.230000*%
%ADD24R,0.230000X0.780000*%
%ADD25R,1.500000X0.800000*%
%ADD26R,1.500000X3.100000*%
%ADD27RoundRect,0.127000X-0.762000X0.508000X-0.762000X-0.508000X0.762000X-0.508000X0.762000X0.508000X0*%
%ADD28R,1.798320X1.597660*%
%ADD29R,2.000000X1.700000*%
%ADD30R,1.000000X1.400000*%
%ADD31R,4.826000X1.100000*%
%ADD32R,1.400000X1.000000*%
%ADD33R,1.270000X0.325000*%
%ADD34R,1.778000X2.286000*%
%ADD35RoundRect,0.150000X-0.150000X-0.625000X0.150000X-0.625000X0.150000X0.625000X-0.150000X0.625000X0*%
%ADD36RoundRect,0.250000X-0.350000X-0.650000X0.350000X-0.650000X0.350000X0.650000X-0.350000X0.650000X0*%
%ADD37R,1.270000X2.059940*%
%ADD38RoundRect,0.100000X-0.637500X-0.100000X0.637500X-0.100000X0.637500X0.100000X-0.637500X0.100000X0*%
%ADD39R,0.280000X1.130000*%
%ADD40R,0.230000X1.130000*%
%ADD41R,2.059940X1.270000*%
%ADD42RoundRect,0.250000X1.000000X-1.950000X1.000000X1.950000X-1.000000X1.950000X-1.000000X-1.950000X0*%
%TA.AperFunction,Profile*%
%ADD43C,0.254000*%
%TD*%
G04 APERTURE END LIST*
D10*
X1040000Y32820000D02*
X5090000Y32820000D01*
X5090000Y32820000D02*
X5090000Y32280000D01*
X5090000Y32280000D02*
X1040000Y32280000D01*
X1040000Y32280000D02*
X1040000Y32820000D01*
G36*
X1040000Y32820000D02*
G01*
X5090000Y32820000D01*
X5090000Y32280000D01*
X1040000Y32280000D01*
X1040000Y32820000D01*
G37*
X1050000Y28420000D02*
X5100000Y28420000D01*
X5100000Y28420000D02*
X5100000Y27880000D01*
X5100000Y27880000D02*
X1050000Y27880000D01*
X1050000Y27880000D02*
X1050000Y28420000D01*
G36*
X1050000Y28420000D02*
G01*
X5100000Y28420000D01*
X5100000Y27880000D01*
X1050000Y27880000D01*
X1050000Y28420000D01*
G37*
X1040465Y31718198D02*
X5090465Y31718198D01*
X5090465Y31718198D02*
X5090465Y31178198D01*
X5090465Y31178198D02*
X1040465Y31178198D01*
X1040465Y31178198D02*
X1040465Y31718198D01*
G36*
X1040465Y31718198D02*
G01*
X5090465Y31718198D01*
X5090465Y31178198D01*
X1040465Y31178198D01*
X1040465Y31718198D01*
G37*
X1040465Y30618198D02*
X5090465Y30618198D01*
X5090465Y30618198D02*
X5090465Y30078198D01*
X5090465Y30078198D02*
X1040465Y30078198D01*
X1040465Y30078198D02*
X1040465Y30618198D01*
G36*
X1040465Y30618198D02*
G01*
X5090465Y30618198D01*
X5090465Y30078198D01*
X1040465Y30078198D01*
X1040465Y30618198D01*
G37*
X1050000Y24060000D02*
X5080000Y24060000D01*
X5080000Y24060000D02*
X5080000Y22460000D01*
X5080000Y22460000D02*
X1050000Y22460000D01*
X1050000Y22460000D02*
X1050000Y24060000D01*
G36*
X1050000Y24060000D02*
G01*
X5080000Y24060000D01*
X5080000Y22460000D01*
X1050000Y22460000D01*
X1050000Y24060000D01*
G37*
X1590000Y34980000D02*
X3440000Y34980000D01*
X3440000Y34980000D02*
X3440000Y33330000D01*
X3440000Y33330000D02*
X1590000Y33330000D01*
X1590000Y33330000D02*
X1590000Y34980000D01*
G36*
X1590000Y34980000D02*
G01*
X3440000Y34980000D01*
X3440000Y33330000D01*
X1590000Y33330000D01*
X1590000Y34980000D01*
G37*
X12750000Y26970000D02*
X13600000Y26970000D01*
X13600000Y26970000D02*
X13600000Y24130000D01*
X13600000Y24130000D02*
X12750000Y24130000D01*
X12750000Y24130000D02*
X12750000Y26970000D01*
G36*
X12750000Y26970000D02*
G01*
X13600000Y26970000D01*
X13600000Y24130000D01*
X12750000Y24130000D01*
X12750000Y26970000D01*
G37*
X12740000Y33030000D02*
X13590000Y33030000D01*
X13590000Y33030000D02*
X13590000Y30190000D01*
X13590000Y30190000D02*
X12740000Y30190000D01*
X12740000Y30190000D02*
X12740000Y33030000D01*
G36*
X12740000Y33030000D02*
G01*
X13590000Y33030000D01*
X13590000Y30190000D01*
X12740000Y30190000D01*
X12740000Y33030000D01*
G37*
X1040000Y29520000D02*
X5090000Y29520000D01*
X5090000Y29520000D02*
X5090000Y28980000D01*
X5090000Y28980000D02*
X1040000Y28980000D01*
X1040000Y28980000D02*
X1040000Y29520000D01*
G36*
X1040000Y29520000D02*
G01*
X5090000Y29520000D01*
X5090000Y28980000D01*
X1040000Y28980000D01*
X1040000Y29520000D01*
G37*
X1050000Y25110000D02*
X5100000Y25110000D01*
X5100000Y25110000D02*
X5100000Y24570000D01*
X5100000Y24570000D02*
X1050000Y24570000D01*
X1050000Y24570000D02*
X1050000Y25110000D01*
G36*
X1050000Y25110000D02*
G01*
X5100000Y25110000D01*
X5100000Y24570000D01*
X1050000Y24570000D01*
X1050000Y25110000D01*
G37*
X1040000Y33660000D02*
X1590000Y33660000D01*
X1590000Y33660000D02*
X1590000Y33330000D01*
X1590000Y33330000D02*
X1040000Y33330000D01*
X1040000Y33330000D02*
X1040000Y33660000D01*
G36*
X1040000Y33660000D02*
G01*
X1590000Y33660000D01*
X1590000Y33330000D01*
X1040000Y33330000D01*
X1040000Y33660000D01*
G37*
X1050000Y27320000D02*
X5100000Y27320000D01*
X5100000Y27320000D02*
X5100000Y26780000D01*
X5100000Y26780000D02*
X1050000Y26780000D01*
X1050000Y26780000D02*
X1050000Y27320000D01*
G36*
X1050000Y27320000D02*
G01*
X5100000Y27320000D01*
X5100000Y26780000D01*
X1050000Y26780000D01*
X1050000Y27320000D01*
G37*
X1050000Y26220000D02*
X5100000Y26220000D01*
X5100000Y26220000D02*
X5100000Y25680000D01*
X5100000Y25680000D02*
X1050000Y25680000D01*
X1050000Y25680000D02*
X1050000Y26220000D01*
G36*
X1050000Y26220000D02*
G01*
X5100000Y26220000D01*
X5100000Y25680000D01*
X1050000Y25680000D01*
X1050000Y26220000D01*
G37*
D11*
X31949000Y43381000D02*
X31149000Y43381000D01*
X31149000Y43381000D02*
X31149000Y42581000D01*
X30549000Y43381000D02*
X30549000Y42581000D01*
X30449000Y43381000D02*
X30449000Y42581000D01*
X30349000Y43381000D02*
X30349000Y42581000D01*
X30249000Y43381000D02*
X30249000Y42581000D01*
X30149000Y43381000D02*
X30549000Y43381000D01*
X29549000Y43381000D02*
X28749000Y43381000D01*
X28749000Y43381000D02*
X28749000Y42581000D01*
X31949000Y43281000D02*
X31149000Y43281000D01*
X29549000Y43281000D02*
X28749000Y43281000D01*
X31949000Y43181000D02*
X31149000Y43181000D01*
X29549000Y43181000D02*
X28749000Y43181000D01*
X31949000Y43081000D02*
X31149000Y43081000D01*
X29549000Y43081000D02*
X28749000Y43081000D01*
X31949000Y42981000D02*
X31149000Y42981000D01*
X29549000Y42981000D02*
X28749000Y42981000D01*
X31949000Y42881000D02*
X31149000Y42881000D01*
X29549000Y42881000D02*
X28749000Y42881000D01*
X31949000Y42781000D02*
X31149000Y42781000D01*
X29549000Y42781000D02*
X28749000Y42781000D01*
X31949000Y42681000D02*
X31149000Y42681000D01*
X29549000Y42681000D02*
X28749000Y42681000D01*
X31949000Y42581000D02*
X31949000Y43381000D01*
X31149000Y42581000D02*
X31949000Y42581000D01*
X30549000Y42581000D02*
X30149000Y42581000D01*
X30149000Y42581000D02*
X30149000Y43381000D01*
X29549000Y42581000D02*
X29549000Y43381000D01*
X28749000Y42581000D02*
X29549000Y42581000D01*
X31949000Y41981000D02*
X31149000Y41981000D01*
X31149000Y41981000D02*
X31149000Y41581000D01*
X29549000Y41981000D02*
X28749000Y41981000D01*
X28749000Y41981000D02*
X28749000Y41581000D01*
X31949000Y41881000D02*
X31149000Y41881000D01*
X29549000Y41881000D02*
X28749000Y41881000D01*
X31149000Y41781000D02*
X31949000Y41781000D01*
X28749000Y41781000D02*
X29549000Y41781000D01*
X31949000Y41681000D02*
X31149000Y41681000D01*
X29549000Y41681000D02*
X28749000Y41681000D01*
X31949000Y41581000D02*
X31949000Y41981000D01*
X31149000Y41581000D02*
X31949000Y41581000D01*
X29549000Y41581000D02*
X29549000Y41981000D01*
X28749000Y41581000D02*
X29549000Y41581000D01*
X31949000Y40981000D02*
X31149000Y40981000D01*
X31149000Y40981000D02*
X31149000Y40181000D01*
X30549000Y40981000D02*
X30549000Y40181000D01*
X30449000Y40981000D02*
X30449000Y40181000D01*
X30349000Y40981000D02*
X30349000Y40181000D01*
X30249000Y40981000D02*
X30249000Y40181000D01*
X30149000Y40981000D02*
X30549000Y40981000D01*
X29549000Y40981000D02*
X28749000Y40981000D01*
X28749000Y40981000D02*
X28749000Y40181000D01*
X31949000Y40881000D02*
X31149000Y40881000D01*
X29549000Y40881000D02*
X28749000Y40881000D01*
X31949000Y40781000D02*
X31149000Y40781000D01*
X29549000Y40781000D02*
X28749000Y40781000D01*
X31949000Y40681000D02*
X31149000Y40681000D01*
X29549000Y40681000D02*
X28749000Y40681000D01*
X31949000Y40581000D02*
X31149000Y40581000D01*
X29549000Y40581000D02*
X28749000Y40581000D01*
X31949000Y40481000D02*
X31149000Y40481000D01*
X29549000Y40481000D02*
X28749000Y40481000D01*
X31949000Y40381000D02*
X31149000Y40381000D01*
X29549000Y40381000D02*
X28749000Y40381000D01*
X31949000Y40281000D02*
X31149000Y40281000D01*
X29549000Y40281000D02*
X28749000Y40281000D01*
X31949000Y40181000D02*
X31949000Y40981000D01*
X31149000Y40181000D02*
X31949000Y40181000D01*
X30549000Y40181000D02*
X30149000Y40181000D01*
X30149000Y40181000D02*
X30149000Y40981000D01*
X29549000Y40181000D02*
X29549000Y40981000D01*
X28749000Y40181000D02*
X29549000Y40181000D01*
D12*
X36063999Y34963639D03*
X36063999Y36660359D03*
X34539999Y34963639D03*
X34539999Y36660359D03*
D13*
X15733839Y27175999D03*
X17532159Y27175999D03*
D12*
X36825999Y48979359D03*
X36825999Y47282639D03*
X39873999Y36787359D03*
X39873999Y35090639D03*
X28189999Y36660359D03*
X28189999Y34963639D03*
X35174999Y48979359D03*
X35174999Y47282639D03*
D14*
X24847359Y44955999D03*
X23150639Y44955999D03*
X24847359Y40002999D03*
X23150639Y40002999D03*
X24847359Y41526999D03*
X23150639Y41526999D03*
X37166359Y41145999D03*
X35469639Y41145999D03*
D15*
X37968999Y35176999D03*
X37968999Y37208999D03*
D16*
X17648999Y25270999D03*
X15616999Y25270999D03*
D17*
X46461499Y54454999D03*
X44937499Y54454999D03*
D14*
X11847639Y44066999D03*
X13544359Y44066999D03*
D12*
X22093999Y66586639D03*
X22093999Y68283359D03*
X42032999Y63711359D03*
X42032999Y62014639D03*
X28951999Y48979359D03*
X28951999Y47282639D03*
X26665999Y48979359D03*
X26665999Y47282639D03*
X32761999Y48979359D03*
X32761999Y47282639D03*
X30475999Y48979359D03*
X30475999Y47282639D03*
D14*
X31278639Y15301499D03*
X32975359Y15301499D03*
X35469639Y39624999D03*
X37166359Y39624999D03*
X24847359Y46733999D03*
X23150639Y46733999D03*
X39406639Y20825999D03*
X41103359Y20825999D03*
X26117359Y22857999D03*
X24420639Y22857999D03*
D18*
X23744999Y35049999D03*
X23744999Y36573999D03*
D19*
X24633999Y35049999D03*
X24633999Y36573999D03*
X25395999Y35049999D03*
X25395999Y36573999D03*
D18*
X26284999Y35049999D03*
X26284999Y36573999D03*
X32634999Y36573999D03*
X32634999Y35049999D03*
D19*
X31745999Y36573999D03*
X31745999Y35049999D03*
X30983999Y36573999D03*
X30983999Y35049999D03*
D18*
X30094999Y36573999D03*
X30094999Y35049999D03*
D20*
X8509999Y59241999D03*
X8509999Y56241999D03*
X10309999Y59241999D03*
X10309999Y56241999D03*
D21*
X1910000Y65252000D03*
X1910000Y63982000D03*
X1910000Y62712000D03*
X1910000Y61442000D03*
X1910000Y60172000D03*
X1910000Y58902000D03*
X1910000Y57632000D03*
X1910000Y56362000D03*
X1910000Y55092000D03*
X1910000Y53822000D03*
X1910000Y52552000D03*
X1910000Y51282000D03*
X1910000Y50012000D03*
X1910000Y48742000D03*
D22*
X4710000Y47742000D03*
X5980000Y47742000D03*
X7250000Y47742000D03*
X8520000Y47742000D03*
X9790000Y47742000D03*
X11060000Y47742000D03*
X12330000Y47742000D03*
X13600000Y47742000D03*
X14870000Y47742000D03*
X16140000Y47742000D03*
D21*
X18910000Y48742000D03*
X18910000Y50012000D03*
X18910000Y51282000D03*
X18910000Y52552000D03*
X18910000Y53822000D03*
X18910000Y55092000D03*
X18910000Y56362000D03*
X18910000Y57632000D03*
X18910000Y58902000D03*
X18910000Y60172000D03*
X18910000Y61442000D03*
X18910000Y62712000D03*
X18910000Y63982000D03*
X18910000Y65252000D03*
D23*
X27898999Y43530999D03*
X27898999Y43030999D03*
X27898999Y42530999D03*
X27898999Y42030999D03*
X27898999Y41530999D03*
X27898999Y41030999D03*
X27898999Y40530999D03*
X27898999Y40030999D03*
D24*
X28598999Y39330999D03*
X29098999Y39330999D03*
X29598999Y39330999D03*
X30098999Y39330999D03*
X30598999Y39330999D03*
X31098999Y39330999D03*
X31598999Y39330999D03*
X32098999Y39330999D03*
D23*
X32798999Y40030999D03*
X32798999Y40530999D03*
X32798999Y41030999D03*
X32798999Y41530999D03*
X32798999Y42030999D03*
X32798999Y42530999D03*
X32798999Y43030999D03*
X32798999Y43530999D03*
D24*
X32098999Y44230999D03*
X31598999Y44230999D03*
X31098999Y44230999D03*
X30598999Y44230999D03*
X30098999Y44230999D03*
X29598999Y44230999D03*
X29098999Y44230999D03*
X28598999Y44230999D03*
D25*
X2726999Y24849999D03*
X2726999Y25949999D03*
X2726999Y27049999D03*
X2726999Y28149999D03*
X2726999Y29249999D03*
X2726999Y30349999D03*
X2726999Y31449999D03*
X2726999Y32549999D03*
D26*
X11976999Y31609999D03*
X11976999Y25549999D03*
D14*
X17481359Y28953999D03*
X15784639Y28953999D03*
D27*
X9521000Y42670000D03*
X1647000Y42670000D03*
X9521000Y36828000D03*
X1647000Y36828000D03*
D28*
X22474999Y56007539D03*
X22474999Y53208459D03*
X22474999Y60828459D03*
X22474999Y63627539D03*
D14*
X46547859Y52676999D03*
X44851139Y52676999D03*
X26117359Y25524999D03*
X24420639Y25524999D03*
X39914639Y25524999D03*
X41611359Y25524999D03*
D12*
X26949999Y17798359D03*
X26949999Y16101639D03*
D14*
X39406639Y22349999D03*
X41103359Y22349999D03*
D29*
X48469999Y33144999D03*
X43469999Y33144999D03*
D30*
X46798039Y35720559D03*
X48700499Y35720559D03*
X47745459Y37930359D03*
D31*
X28316999Y27429999D03*
X37714999Y27429999D03*
D32*
X22439439Y22670039D03*
X22439439Y24572499D03*
X20229639Y23617459D03*
D14*
X45040359Y35938999D03*
X43343639Y35938999D03*
D12*
X22309999Y15883279D03*
X22309999Y17579999D03*
D14*
X13544359Y42542999D03*
X11847639Y42542999D03*
X11847639Y41018999D03*
X13544359Y41018999D03*
D33*
X35746499Y17138999D03*
X35746499Y17788999D03*
X35746499Y18438999D03*
X35746499Y19088999D03*
X35746499Y19738999D03*
X35746499Y20388999D03*
X35746499Y21038999D03*
X35746499Y21688999D03*
X35746499Y22338999D03*
X35746499Y22988999D03*
X28507499Y22988999D03*
X28507499Y22338999D03*
X28507499Y21688999D03*
X28507499Y21038999D03*
X28507499Y20388999D03*
X28507499Y19738999D03*
X28507499Y19088999D03*
X28507499Y18438999D03*
X28507499Y17788999D03*
X28507499Y17138999D03*
D17*
X46461499Y58899999D03*
X44937499Y58899999D03*
D14*
X44851139Y57121999D03*
X46547859Y57121999D03*
X12348359Y19939999D03*
X10651639Y19939999D03*
X17735359Y35176999D03*
X16038639Y35176999D03*
D34*
X48400999Y29842999D03*
X44046999Y29842999D03*
D30*
X21011959Y37427439D03*
X19109499Y37427439D03*
X20064539Y35217639D03*
D14*
X21037359Y42288999D03*
X19340639Y42288999D03*
D16*
X15489999Y37843999D03*
X17521999Y37843999D03*
D14*
X19340638Y39240999D03*
X21037358Y39240999D03*
D32*
X17684559Y45651959D03*
X17684559Y43749499D03*
X19894359Y44704539D03*
D14*
X19340638Y40764999D03*
X21037358Y40764999D03*
X9099359Y21460999D03*
X7402639Y21460999D03*
X17735359Y33652999D03*
X16038639Y33652999D03*
D32*
X15532999Y41206999D03*
X15532999Y39306999D03*
X17732999Y40256999D03*
X37841999Y15115999D03*
X37841999Y18915999D03*
X39873999Y18915999D03*
X39873999Y15115999D03*
D14*
X16038639Y31874999D03*
X17735359Y31874999D03*
X12348359Y21463999D03*
X10651639Y21463999D03*
X9099359Y19936999D03*
X7402639Y19936999D03*
X19386359Y21714999D03*
X17689639Y21714999D03*
X17862359Y23365999D03*
X16165639Y23365999D03*
D32*
X22312439Y19114039D03*
X22312439Y21016499D03*
X20102639Y20061459D03*
D14*
X18497359Y20063999D03*
X16800639Y20063999D03*
X13544359Y39240999D03*
X11847639Y39240999D03*
X13544359Y35938999D03*
X11847639Y35938999D03*
D12*
X28169999Y9235080D03*
X28169999Y7538360D03*
D14*
X39473359Y9219179D03*
X37776639Y9219179D03*
X17091639Y7479999D03*
X18788359Y7479999D03*
D35*
X10430000Y5440000D03*
X11430000Y5440000D03*
X12430000Y5440000D03*
X13430000Y5440000D03*
D36*
X9130000Y1565000D03*
X14730000Y1565000D03*
D14*
X64903199Y7474999D03*
X66599919Y7474999D03*
D37*
X47977599Y26399999D03*
X44472399Y26399999D03*
D12*
X4559999Y9236719D03*
X4559999Y7539999D03*
D35*
X2560000Y5440000D03*
X3560000Y5440000D03*
X4560000Y5440000D03*
X5560000Y5440000D03*
D36*
X1260000Y1565000D03*
X6860000Y1565000D03*
D14*
X1361639Y7479999D03*
X3058359Y7479999D03*
D35*
X50360000Y5434115D03*
X51360000Y5434115D03*
X52360000Y5434115D03*
X53360000Y5434115D03*
D36*
X49060000Y1559115D03*
X54660000Y1559115D03*
D35*
X58230000Y5435112D03*
X59230000Y5435112D03*
X60230000Y5435112D03*
X61230000Y5435112D03*
D36*
X56930000Y1560112D03*
X62530000Y1560112D03*
D12*
X21774999Y9236008D03*
X21774999Y7539288D03*
D35*
X26170000Y5436721D03*
X27170000Y5436721D03*
X28170000Y5436721D03*
X29170000Y5436721D03*
D36*
X24870000Y1561721D03*
X30470000Y1561721D03*
D12*
X53834999Y9232474D03*
X53834999Y7535754D03*
D14*
X50401639Y61349999D03*
X52098359Y61349999D03*
X57032479Y7475111D03*
X58729199Y7475111D03*
D12*
X52359999Y9229194D03*
X52359999Y7532474D03*
X60229999Y9233471D03*
X60229999Y7536751D03*
X6034999Y9238359D03*
X6034999Y7541639D03*
D14*
X36193359Y9219999D03*
X34496639Y9219999D03*
D12*
X29644999Y9235080D03*
X29644999Y7538360D03*
D14*
X49160799Y7474114D03*
X50857519Y7474114D03*
D35*
X42490000Y5433893D03*
X43490000Y5433893D03*
X44490000Y5433893D03*
X45490000Y5433893D03*
D36*
X41190000Y1558893D03*
X46790000Y1558893D03*
D12*
X68100719Y9236639D03*
X68100719Y7539919D03*
D14*
X57476639Y61349999D03*
X59173359Y61349999D03*
D38*
X32987500Y7890000D03*
X32987500Y7240000D03*
X32987500Y6590000D03*
X32987500Y5940000D03*
X32987500Y5290000D03*
X32987500Y4640000D03*
X32987500Y3990000D03*
X32987500Y3340000D03*
X32987500Y2690000D03*
X32987500Y2040000D03*
X32987500Y1390000D03*
X32987500Y740000D03*
X38712500Y740000D03*
X38712500Y1390000D03*
X38712500Y2040000D03*
X38712500Y2690000D03*
X38712500Y3340000D03*
X38712500Y3990000D03*
X38712500Y4640000D03*
X38712500Y5290000D03*
X38712500Y5940000D03*
X38712500Y6590000D03*
X38712500Y7240000D03*
X38712500Y7890000D03*
D14*
X9231639Y7479999D03*
X10928359Y7479999D03*
D12*
X13904999Y9238359D03*
X13904999Y7541639D03*
D14*
X42948359Y8979999D03*
X41251639Y8979999D03*
D12*
X45964999Y9232252D03*
X45964999Y7535532D03*
X20299999Y9236008D03*
X20299999Y7539288D03*
D14*
X26669199Y7476720D03*
X24972479Y7476720D03*
D35*
X66110000Y5435000D03*
X67110000Y5435000D03*
X68110000Y5435000D03*
X69110000Y5435000D03*
D36*
X64810000Y1560000D03*
X70410000Y1560000D03*
D14*
X41292479Y7473892D03*
X42989199Y7473892D03*
D39*
X58299999Y64517999D03*
X57499999Y64517999D03*
D40*
X56224999Y64517999D03*
X55224999Y64517999D03*
X54724999Y64517999D03*
X53724999Y64517999D03*
D39*
X52449999Y64517999D03*
X51649999Y64517999D03*
X51899999Y64517999D03*
X52699999Y64517999D03*
D40*
X53224999Y64517999D03*
X54224999Y64517999D03*
X55724999Y64517999D03*
X56724999Y64517999D03*
D39*
X57249999Y64517999D03*
X58049999Y64517999D03*
D12*
X69575719Y9233359D03*
X69575719Y7536639D03*
X12429999Y9236719D03*
X12429999Y7539999D03*
D41*
X46474999Y15974999D03*
X46474999Y19480199D03*
D14*
X31221639Y9219999D03*
X32918359Y9219999D03*
D12*
X61704999Y9233471D03*
X61704999Y7536751D03*
X44489999Y9230612D03*
X44489999Y7533892D03*
D35*
X18300000Y5437649D03*
X19300000Y5437649D03*
X20300000Y5437649D03*
X21300000Y5437649D03*
D36*
X17000000Y1562649D03*
X22600000Y1562649D03*
D42*
X65810000Y61620000D03*
X65810000Y70020000D03*
D41*
X43424999Y15974999D03*
X43424999Y19480199D03*
D43*
X48650000Y72773492D02*
X49770000Y71659000D01*
X48650000Y72773492D02*
X19554000Y72769000D01*
X-4000Y66673000D02*
X0Y0D01*
X61200000Y72675000D02*
X71675000Y72675000D01*
X19554000Y66673000D02*
X19554000Y72769000D01*
X60184000Y71659000D02*
X61200000Y72675000D01*
X49770000Y71659000D02*
X60184000Y71659000D01*
X71675000Y72675000D02*
X71675000Y0D01*
X-4000Y66673000D02*
X19554000Y66673000D01*
X0Y0D02*
X71675000Y0D01*
M02*
