%TF.GenerationSoftware,KiCad,Pcbnew,(6.0.8)*%
%TF.CreationDate,2023-02-21T13:27:12+03:00*%
%TF.ProjectId,ESP32-DEVKIT-L,45535033-322d-4444-9556-4b49542d4c2e,1*%
%TF.SameCoordinates,PX4260300PY8558f68*%
%TF.FileFunction,Component,L1,Top*%
%TF.FilePolarity,Positive*%
%FSLAX46Y46*%
G04 Gerber Fmt 4.6, Leading zero omitted, Abs format (unit mm)*
G04 Created by KiCad (PCBNEW (6.0.8)) date 2023-02-21 13:27:12*
%MOMM*%
%LPD*%
G01*
G04 APERTURE LIST*
%TA.AperFunction,ComponentMain*%
%ADD10C,0.300000*%
%TD*%
%TA.AperFunction,ComponentOutline,Footprint*%
%ADD11C,0.100000*%
%TD*%
%TA.AperFunction,ComponentPin*%
%ADD12C,0.000000*%
%TD*%
%TA.AperFunction,ComponentOutline,Courtyard*%
%ADD13C,0.100000*%
%TD*%
%TA.AperFunction,ComponentPin*%
%ADD14P,0.360000X4X0.000000*%
%TD*%
G04 APERTURE END LIST*
D10*
%TO.C,"MH2"*%
%TO.CFtp,"Mounting_hole_Shield_3.3mm"*%
%TO.CVal,"Mounting_hole_Shield_3.3mm"*%
%TO.CLbN,"OLIMEX_Other-FP"*%
%TO.CMnt,TH*%
%TO.CRot,0*%
X3552000Y17524000D03*
D11*
X402000Y20674000D02*
X402000Y14374000D01*
X6702000Y14374000D01*
X6702000Y20674000D01*
X402000Y20674000D01*
D12*
%TO.P,"MH2","GND1","GND1"*%
X5203000Y19175000D03*
X1901000Y15746000D03*
X5203000Y15873000D03*
X3552000Y15111000D03*
X1139000Y17524000D03*
X3552000Y19937000D03*
X5965000Y17524000D03*
X1901000Y19175000D03*
X3552000Y17524000D03*
%TD*%
D10*
%TO.C,"C5"*%
%TO.CFtp,"0603"*%
%TO.CVal,"22uF/6.3V/20\u0025/X5R/C0603"*%
%TO.CLbN,"Capacitors"*%
%TO.CMnt,SMD*%
%TO.CRot,90*%
X36064000Y35812000D03*
D13*
X36762499Y34214341D02*
X35365501Y34214341D01*
X35365501Y37409659D01*
X36762499Y37409659D01*
X36762499Y34214341D01*
D14*
%TO.P,"C5","1"*%
X36064000Y34963640D03*
D12*
%TO.P,"C5","2"*%
X36064000Y36660360D03*
%TD*%
D10*
%TO.C,"C6"*%
%TO.CFtp,"0603"*%
%TO.CVal,"22uF/6.3V/20\u0025/X5R/C0603"*%
%TO.CLbN,"Capacitors"*%
%TO.CMnt,SMD*%
%TO.CRot,90*%
X34540000Y35812000D03*
D13*
X35238499Y34214341D02*
X33841501Y34214341D01*
X33841501Y37409659D01*
X35238499Y37409659D01*
X35238499Y34214341D01*
D14*
%TO.P,"C6","1"*%
X34540000Y34963640D03*
D12*
%TO.P,"C6","2"*%
X34540000Y36660360D03*
%TD*%
D10*
%TO.C,"C24"*%
%TO.CFtp,"0805"*%
%TO.CVal,"47uF/6.3V/20\u0025/X5R/C0805"*%
%TO.CLbN,"Capacitors"*%
%TO.CMnt,SMD*%
%TO.CRot,0*%
X16633000Y27176000D03*
D13*
X18131599Y26378441D02*
X15134401Y26378441D01*
X15134401Y27973559D01*
X18131599Y27973559D01*
X18131599Y26378441D01*
D14*
%TO.P,"C24","1"*%
X15733840Y27176000D03*
D12*
%TO.P,"C24","2"*%
X17532160Y27176000D03*
%TD*%
D10*
%TO.C,"C12"*%
%TO.CFtp,"0603"*%
%TO.CVal,"100nF/50V/20\u0025/Y5V/C0603"*%
%TO.CLbN,"Capacitors"*%
%TO.CMnt,SMD*%
%TO.CRot,-90*%
X36826000Y48131000D03*
D13*
X37524499Y46533341D02*
X36127501Y46533341D01*
X36127501Y49728659D01*
X37524499Y49728659D01*
X37524499Y46533341D01*
D14*
%TO.P,"C12","1"*%
X36826000Y48979360D03*
D12*
%TO.P,"C12","2"*%
X36826000Y47282640D03*
%TD*%
D10*
%TO.C,"C13"*%
%TO.CFtp,"0603"*%
%TO.CVal,"22uF/6.3V/20\u0025/X5R/C0603"*%
%TO.CLbN,"Capacitors"*%
%TO.CMnt,SMD*%
%TO.CRot,-90*%
X39874000Y35939000D03*
D13*
X40572499Y34341341D02*
X39175501Y34341341D01*
X39175501Y37536659D01*
X40572499Y37536659D01*
X40572499Y34341341D01*
D14*
%TO.P,"C13","1"*%
X39874000Y36787360D03*
D12*
%TO.P,"C13","2"*%
X39874000Y35090640D03*
%TD*%
D10*
%TO.C,"C14"*%
%TO.CFtp,"0603"*%
%TO.CVal,"100nF/50V/20\u0025/Y5V/C0603"*%
%TO.CLbN,"Capacitors"*%
%TO.CMnt,SMD*%
%TO.CRot,-90*%
X28190000Y35812000D03*
D13*
X28888499Y34214341D02*
X27491501Y34214341D01*
X27491501Y37409659D01*
X28888499Y37409659D01*
X28888499Y34214341D01*
D14*
%TO.P,"C14","1"*%
X28190000Y36660360D03*
D12*
%TO.P,"C14","2"*%
X28190000Y34963640D03*
%TD*%
D10*
%TO.C,"C15"*%
%TO.CFtp,"0603"*%
%TO.CVal,"100nF/50V/20\u0025/Y5V/C0603"*%
%TO.CLbN,"Capacitors"*%
%TO.CMnt,SMD*%
%TO.CRot,-90*%
X35175000Y48131000D03*
D13*
X35873499Y46533341D02*
X34476501Y46533341D01*
X34476501Y49728659D01*
X35873499Y49728659D01*
X35873499Y46533341D01*
D14*
%TO.P,"C15","1"*%
X35175000Y48979360D03*
D12*
%TO.P,"C15","2"*%
X35175000Y47282640D03*
%TD*%
D10*
%TO.C,"C16"*%
%TO.CFtp,"0603"*%
%TO.CVal,"100nF/50V/20\u0025/Y5V/C0603"*%
%TO.CLbN,"Capacitors"*%
%TO.CMnt,SMD*%
%TO.CRot,180*%
X23999000Y44956000D03*
D13*
X25596659Y44257501D02*
X22401341Y44257501D01*
X22401341Y45654499D01*
X25596659Y45654499D01*
X25596659Y44257501D01*
D14*
%TO.P,"C16","1"*%
X24847360Y44956000D03*
D12*
%TO.P,"C16","2"*%
X23150640Y44956000D03*
%TD*%
D10*
%TO.C,"C17"*%
%TO.CFtp,"0603"*%
%TO.CVal,"2.2uF/6.3V/10\u0025/X5R/C0603"*%
%TO.CLbN,"Capacitors"*%
%TO.CMnt,SMD*%
%TO.CRot,180*%
X23999000Y40003000D03*
D13*
X25596659Y39304501D02*
X22401341Y39304501D01*
X22401341Y40701499D01*
X25596659Y40701499D01*
X25596659Y39304501D01*
D14*
%TO.P,"C17","1"*%
X24847360Y40003000D03*
D12*
%TO.P,"C17","2"*%
X23150640Y40003000D03*
%TD*%
D10*
%TO.C,"C18"*%
%TO.CFtp,"0603"*%
%TO.CVal,"100nF/50V/20\u0025/Y5V/C0603"*%
%TO.CLbN,"Capacitors"*%
%TO.CMnt,SMD*%
%TO.CRot,180*%
X23999000Y41527000D03*
D13*
X25596659Y40828501D02*
X22401341Y40828501D01*
X22401341Y42225499D01*
X25596659Y42225499D01*
X25596659Y40828501D01*
D14*
%TO.P,"C18","1"*%
X24847360Y41527000D03*
D12*
%TO.P,"C18","2"*%
X23150640Y41527000D03*
%TD*%
D10*
%TO.C,"C20"*%
%TO.CFtp,"0603"*%
%TO.CVal,"NA(10uF/6.3V/20\u0025/X5R/C0603)"*%
%TO.CLbN,"Capacitors"*%
%TO.CMnt,SMD*%
%TO.CRot,180*%
X36318000Y41146000D03*
D13*
X37915659Y40447501D02*
X34720341Y40447501D01*
X34720341Y41844499D01*
X37915659Y41844499D01*
X37915659Y40447501D01*
D14*
%TO.P,"C20","1"*%
X37166360Y41146000D03*
D12*
%TO.P,"C20","2"*%
X35469640Y41146000D03*
%TD*%
D10*
%TO.C,"L2"*%
%TO.CFtp,"L_0805_5MIL_DWS"*%
%TO.CVal,"FB0805/600R/2A"*%
%TO.CLbN,"OLIMEX_RLC-FP"*%
%TO.CMnt,SMD*%
%TO.CRot,90*%
X37969000Y36193000D03*
D11*
X37334000Y34415000D02*
X38604000Y34415000D01*
X38604000Y37971000D01*
X37334000Y37971000D01*
X37334000Y34415000D01*
D14*
%TO.P,"L2","1","1"*%
X37969000Y35177000D03*
D12*
%TO.P,"L2","2","2"*%
X37969000Y37209000D03*
%TD*%
D10*
%TO.C,"L3"*%
%TO.CFtp,"L_0805_5MIL_DWS"*%
%TO.CVal,"FB0805/600R/2A"*%
%TO.CLbN,"OLIMEX_RLC-FP"*%
%TO.CMnt,SMD*%
%TO.CRot,180*%
X16633000Y25271000D03*
D11*
X18411000Y24636000D02*
X18411000Y25906000D01*
X14855000Y25906000D01*
X14855000Y24636000D01*
X18411000Y24636000D01*
D14*
%TO.P,"L3","1","1"*%
X17649000Y25271000D03*
D12*
%TO.P,"L3","2","2"*%
X15617000Y25271000D03*
%TD*%
D10*
%TO.C,"PWRLED1"*%
%TO.CFtp,"LED_0603_KA"*%
%TO.CVal,"LED/RED/0603"*%
%TO.CLbN,"OLIMEX_LEDs-FP"*%
%TO.CMnt,SMD*%
%TO.CRot,180*%
X45699500Y54455000D03*
D11*
X46861500Y54055000D02*
X46861500Y54855000D01*
X44537500Y54855000D01*
X44537500Y54055000D01*
X46861500Y54055000D01*
D14*
%TO.P,"PWRLED1","1","K"*%
X46461500Y54455000D03*
D12*
%TO.P,"PWRLED1","2","A"*%
X44937500Y54455000D03*
%TD*%
D10*
%TO.C,"R51"*%
%TO.CFtp,"0603"*%
%TO.CVal,"220R/R0603"*%
%TO.CLbN,"Resistors"*%
%TO.CMnt,SMD*%
%TO.CRot,0*%
X12696000Y44067000D03*
D13*
X14293659Y43368501D02*
X11098341Y43368501D01*
X11098341Y44765499D01*
X14293659Y44765499D01*
X14293659Y43368501D01*
D14*
%TO.P,"R51","1"*%
X11847640Y44067000D03*
D12*
%TO.P,"R51","2"*%
X13544360Y44067000D03*
%TD*%
D10*
%TO.C,"R5"*%
%TO.CFtp,"0603"*%
%TO.CVal,"330R/R0603"*%
%TO.CLbN,"Resistors"*%
%TO.CMnt,SMD*%
%TO.CRot,90*%
X22094000Y67435000D03*
D13*
X22792499Y65837341D02*
X21395501Y65837341D01*
X21395501Y69032659D01*
X22792499Y69032659D01*
X22792499Y65837341D01*
D14*
%TO.P,"R5","1"*%
X22094000Y66586640D03*
D12*
%TO.P,"R5","2"*%
X22094000Y68283360D03*
%TD*%
D10*
%TO.C,"R6"*%
%TO.CFtp,"0603"*%
%TO.CVal,"330R/R0603"*%
%TO.CLbN,"Resistors"*%
%TO.CMnt,SMD*%
%TO.CRot,-90*%
X42033000Y62863000D03*
D13*
X42731499Y61265341D02*
X41334501Y61265341D01*
X41334501Y64460659D01*
X42731499Y64460659D01*
X42731499Y61265341D01*
D14*
%TO.P,"R6","1"*%
X42033000Y63711360D03*
D12*
%TO.P,"R6","2"*%
X42033000Y62014640D03*
%TD*%
D10*
%TO.C,"R7"*%
%TO.CFtp,"0603"*%
%TO.CVal,"49.9R/1\u0025/R0603"*%
%TO.CLbN,"Resistors"*%
%TO.CMnt,SMD*%
%TO.CRot,-90*%
X28952000Y48131000D03*
D13*
X29650499Y46533341D02*
X28253501Y46533341D01*
X28253501Y49728659D01*
X29650499Y49728659D01*
X29650499Y46533341D01*
D14*
%TO.P,"R7","1"*%
X28952000Y48979360D03*
D12*
%TO.P,"R7","2"*%
X28952000Y47282640D03*
%TD*%
D10*
%TO.C,"R8"*%
%TO.CFtp,"0603"*%
%TO.CVal,"49.9R/1\u0025/R0603"*%
%TO.CLbN,"Resistors"*%
%TO.CMnt,SMD*%
%TO.CRot,-90*%
X26666000Y48131000D03*
D13*
X27364499Y46533341D02*
X25967501Y46533341D01*
X25967501Y49728659D01*
X27364499Y49728659D01*
X27364499Y46533341D01*
D14*
%TO.P,"R8","1"*%
X26666000Y48979360D03*
D12*
%TO.P,"R8","2"*%
X26666000Y47282640D03*
%TD*%
D10*
%TO.C,"R9"*%
%TO.CFtp,"0603"*%
%TO.CVal,"49.9R/1\u0025/R0603"*%
%TO.CLbN,"Resistors"*%
%TO.CMnt,SMD*%
%TO.CRot,-90*%
X32762000Y48131000D03*
D13*
X33460499Y46533341D02*
X32063501Y46533341D01*
X32063501Y49728659D01*
X33460499Y49728659D01*
X33460499Y46533341D01*
D14*
%TO.P,"R9","1"*%
X32762000Y48979360D03*
D12*
%TO.P,"R9","2"*%
X32762000Y47282640D03*
%TD*%
D10*
%TO.C,"R10"*%
%TO.CFtp,"0603"*%
%TO.CVal,"49.9R/1\u0025/R0603"*%
%TO.CLbN,"Resistors"*%
%TO.CMnt,SMD*%
%TO.CRot,-90*%
X30476000Y48131000D03*
D13*
X31174499Y46533341D02*
X29777501Y46533341D01*
X29777501Y49728659D01*
X31174499Y49728659D01*
X31174499Y46533341D01*
D14*
%TO.P,"R10","1"*%
X30476000Y48979360D03*
D12*
%TO.P,"R10","2"*%
X30476000Y47282640D03*
%TD*%
D10*
%TO.C,"R11"*%
%TO.CFtp,"0603"*%
%TO.CVal,"10k/R0603"*%
%TO.CLbN,"Resistors"*%
%TO.CMnt,SMD*%
%TO.CRot,0*%
X32127000Y15301500D03*
D13*
X33724659Y14603001D02*
X30529341Y14603001D01*
X30529341Y15999999D01*
X33724659Y15999999D01*
X33724659Y14603001D01*
D14*
%TO.P,"R11","1"*%
X31278640Y15301500D03*
D12*
%TO.P,"R11","2"*%
X32975360Y15301500D03*
%TD*%
D10*
%TO.C,"R18"*%
%TO.CFtp,"0603"*%
%TO.CVal,"10k/R0603"*%
%TO.CLbN,"Resistors"*%
%TO.CMnt,SMD*%
%TO.CRot,0*%
X36318000Y39625000D03*
D13*
X37915659Y38926501D02*
X34720341Y38926501D01*
X34720341Y40323499D01*
X37915659Y40323499D01*
X37915659Y38926501D01*
D14*
%TO.P,"R18","1"*%
X35469640Y39625000D03*
D12*
%TO.P,"R18","2"*%
X37166360Y39625000D03*
%TD*%
D10*
%TO.C,"R19"*%
%TO.CFtp,"0603"*%
%TO.CVal,"12.1k/1\u0025/R0603"*%
%TO.CLbN,"Resistors"*%
%TO.CMnt,SMD*%
%TO.CRot,180*%
X23999000Y46734000D03*
D13*
X25596659Y46035501D02*
X22401341Y46035501D01*
X22401341Y47432499D01*
X25596659Y47432499D01*
X25596659Y46035501D01*
D14*
%TO.P,"R19","1"*%
X24847360Y46734000D03*
D12*
%TO.P,"R19","2"*%
X23150640Y46734000D03*
%TD*%
D10*
%TO.C,"R12"*%
%TO.CFtp,"0603"*%
%TO.CVal,"10k/R0603"*%
%TO.CLbN,"Resistors"*%
%TO.CMnt,SMD*%
%TO.CRot,0*%
X40255000Y20826000D03*
D13*
X41852659Y20127501D02*
X38657341Y20127501D01*
X38657341Y21524499D01*
X41852659Y21524499D01*
X41852659Y20127501D01*
D14*
%TO.P,"R12","1"*%
X39406640Y20826000D03*
D12*
%TO.P,"R12","2"*%
X41103360Y20826000D03*
%TD*%
D10*
%TO.C,"R15"*%
%TO.CFtp,"0603"*%
%TO.CVal,"1k/R0603"*%
%TO.CLbN,"Resistors"*%
%TO.CMnt,SMD*%
%TO.CRot,180*%
X25269000Y22858000D03*
D13*
X26866659Y22159501D02*
X23671341Y22159501D01*
X23671341Y23556499D01*
X26866659Y23556499D01*
X26866659Y22159501D01*
D14*
%TO.P,"R15","1"*%
X26117360Y22858000D03*
D12*
%TO.P,"R15","2"*%
X24420640Y22858000D03*
%TD*%
D10*
%TO.C,"RM2"*%
%TO.CFtp,"R_MATRIX_4"*%
%TO.CVal,"RA1206_(4X0603)_4B8_2.2k"*%
%TO.CLbN,"OLIMEX_RLC-FP"*%
%TO.CMnt,SMD*%
%TO.CRot,0*%
X25015000Y35812000D03*
D11*
X23427500Y37082000D02*
X23427500Y34542000D01*
X26602500Y34542000D01*
X26602500Y37082000D01*
X23427500Y37082000D01*
D12*
%TO.P,"RM2","1.1"*%
X23745000Y35050000D03*
%TO.P,"RM2","1.2"*%
X23745000Y36574000D03*
%TO.P,"RM2","2.1"*%
X24634000Y35050000D03*
%TO.P,"RM2","2.2"*%
X24634000Y36574000D03*
%TO.P,"RM2","3.1"*%
X25396000Y35050000D03*
%TO.P,"RM2","3.2"*%
X25396000Y36574000D03*
%TO.P,"RM2","4.1"*%
X26285000Y35050000D03*
%TO.P,"RM2","4.2"*%
X26285000Y36574000D03*
%TD*%
D10*
%TO.C,"RM1"*%
%TO.CFtp,"R_MATRIX_4"*%
%TO.CVal,"RA1206_(4X0603)_4B8_2.2k"*%
%TO.CLbN,"OLIMEX_RLC-FP"*%
%TO.CMnt,SMD*%
%TO.CRot,180*%
X31365000Y35812000D03*
D11*
X32952500Y34542000D02*
X32952500Y37082000D01*
X29777500Y37082000D01*
X29777500Y34542000D01*
X32952500Y34542000D01*
D12*
%TO.P,"RM1","1.1"*%
X32635000Y36574000D03*
%TO.P,"RM1","1.2"*%
X32635000Y35050000D03*
%TO.P,"RM1","2.1"*%
X31746000Y36574000D03*
%TO.P,"RM1","2.2"*%
X31746000Y35050000D03*
%TO.P,"RM1","3.1"*%
X30984000Y36574000D03*
%TO.P,"RM1","3.2"*%
X30984000Y35050000D03*
%TO.P,"RM1","4.1"*%
X30095000Y36574000D03*
%TO.P,"RM1","4.2"*%
X30095000Y35050000D03*
%TD*%
D10*
%TO.C,"U7"*%
%TO.CFtp,"ESP-WROOM-32_MODULE"*%
%TO.CVal,"ESP32-WROOM-32D-4MB"*%
%TO.CLbN,"OLIMEX_Cases-FP"*%
%TO.CMnt,TH*%
%TO.CRot,0*%
X10410000Y59942000D03*
D11*
X910000Y65702000D02*
X910000Y46742000D01*
X19910000Y46742000D01*
X19910000Y65702000D01*
X910000Y65702000D01*
D14*
%TO.P,"U7","1","GND"*%
X1910000Y65252000D03*
D12*
%TO.P,"U7","2","3V3"*%
X1910000Y63982000D03*
%TO.P,"U7","3","EN"*%
X1910000Y62712000D03*
%TO.P,"U7","4","GPI36/SENSOR_VP/ADC_H/ADC1_CH0/RTC_GPIO0"*%
X1910000Y61442000D03*
%TO.P,"U7","5","GPI39/SENSOR_VN/ADC1_CH3/ADC_H/RTC_GPIO3"*%
X1910000Y60172000D03*
%TO.P,"U7","6","GPI34/ADC1_CH6/RTC_GPIO4"*%
X1910000Y58902000D03*
%TO.P,"U7","7","GPI35/ADC1_CH7/RTC_GPIO5"*%
X1910000Y57632000D03*
%TO.P,"U7","8","GPIO32/XTAL_32K_P/ADC1_CH4/TOUCH9/RTC_GPIO9"*%
X1910000Y56362000D03*
%TO.P,"U7","9","GPIO33/XTAL_32K_N/ADC1_CH5/TOUCH8/RTC_GPIO8"*%
X1910000Y55092000D03*
%TO.P,"U7","10","GPIO25/DAC_1/ADC2_CH8/RTC_GPIO6/EMAC_RXD0"*%
X1910000Y53822000D03*
%TO.P,"U7","11","GPIO26/DAC_2/ADC2_CH9/RTC_GPIO7/EMAC_RXD1"*%
X1910000Y52552000D03*
%TO.P,"U7","12","GPIO27/ADC2_CH7/TOUCH7/RTC_GPIO17/EMAC_RX_DV"*%
X1910000Y51282000D03*
%TO.P,"U7","13","GPIO14/ADC2_CH6/TOUCH6/RTC_GPIO16/MTMS/HSPICLK/HS2_CLK/SD_CLK/EMAC_TXD2"*%
X1910000Y50012000D03*
%TO.P,"U7","14","GPIO12/ADC2_CH5/TOUCH5/RTC_GPIO15/MTDI/HSPIQ/HS2_DATA2/SD_DATA2/EMAC_TXD3"*%
X1910000Y48742000D03*
%TO.P,"U7","15","GND"*%
X4710000Y47742000D03*
%TO.P,"U7","16","GPIO13/ADC2_CH4/TOUCH4/RTC_GPIO14/MTCK/HSPID/HS2_DATA3/SD_DATA3/EMAC_RX_ER"*%
X5980000Y47742000D03*
%TO.P,"U7","17","GPIO9/SD_DATA2/SPIHD/HS1_DATA2/U1RXD"*%
X7250000Y47742000D03*
%TO.P,"U7","18","GPIO10/SD_DATA3/SPIWP/HS1_DATA3/U1TXD"*%
X8520000Y47742000D03*
%TO.P,"U7","19","GPIO11/SD_CMD/SPICS0/HS1_CMD/U1RTS"*%
X9790000Y47742000D03*
%TO.P,"U7","20","GPIO6/SD_CLK/SPICLK/HS1_CLK/U1CTS"*%
X11060000Y47742000D03*
%TO.P,"U7","21","GPIO7/SD_DATA0/SPIQ/HS1_DATA0/U2RTS"*%
X12330000Y47742000D03*
%TO.P,"U7","22","GPIO8/SD_DATA1/SPID/HS1_DATA1/U2CTS"*%
X13600000Y47742000D03*
%TO.P,"U7","23","GPIO15/ADC2_CH3/TOUCH3/MTDO/HSPICS0/RTC_GPIO13/HS2_CMD/SD_CMD/EMAC_RXD3"*%
X14870000Y47742000D03*
%TO.P,"U7","24","GPIO2/ADC2_CH2/TOUCH2/RTC_GPIO12/HSPIWP/HS2_DATA0/SD_DATA0"*%
X16140000Y47742000D03*
%TO.P,"U7","25","GPIO0/ADC2_CH1/TOUCH1/RTC_GPIO11/CLK_OUT1/EMAC_TX_CLK"*%
X18910000Y48742000D03*
%TO.P,"U7","26","GPIO4/ADC2_CH0/TOUCH0/RTC_GPIO10/HSPIHD/HS2_DATA1/SD_DATA1/EMAC_TX_ER"*%
X18910000Y50012000D03*
%TO.P,"U7","27","GPIO16/HS1_DATA4/U2RXD/EMAC_CLK_OUT"*%
X18910000Y51282000D03*
%TO.P,"U7","28","GPIO17/HS1_DATA5/U2TXD/EMAC_CLK_OUT_180"*%
X18910000Y52552000D03*
%TO.P,"U7","29","GPIO5/VSPICS0/HS1_DATA6/EMAC_RX_CLK"*%
X18910000Y53822000D03*
%TO.P,"U7","30","GPIO18/VSPICLK/HS1_DATA7"*%
X18910000Y55092000D03*
%TO.P,"U7","31","GPIO19/VSPIQ/U0CTS/EMAC_TXD0"*%
X18910000Y56362000D03*
%TO.P,"U7","32","NC"*%
X18910000Y57632000D03*
%TO.P,"U7","33","GPIO21/VSPIHD/EMAC_TX_EN"*%
X18910000Y58902000D03*
%TO.P,"U7","34","GPIO3/U0RXD/CLK_OUT2"*%
X18910000Y60172000D03*
%TO.P,"U7","35","GPIO1/U0TXD/CLK_OUT3/EMAC_RXD2"*%
X18910000Y61442000D03*
%TO.P,"U7","36","GPIO22/VSPIWP/U0RTS/EMAC_TXD1"*%
X18910000Y62712000D03*
%TO.P,"U7","37","GPIO23/VSPID/HS1_STROBE"*%
X18910000Y63982000D03*
%TO.P,"U7","38","GND"*%
X18910000Y65252000D03*
%TO.P,"U7","39","THERMAL_PAD"*%
X11210000Y57742000D03*
X7610000Y59542000D03*
X11210000Y59542000D03*
X9410000Y57742000D03*
X11210000Y55942000D03*
X7610000Y55942000D03*
X9410000Y57742000D03*
X9410000Y55942000D03*
X7610000Y57742000D03*
X9410000Y59542000D03*
%TD*%
D10*
%TO.C,"U4"*%
%TO.CFtp,"QFN32_EP(33)_5.00x5.00x0.90mm_Pitch_0.50mm"*%
%TO.CVal,"LAN8710A-EZC(QFN32)"*%
%TO.CLbN,"OLIMEX_IC-FP"*%
%TO.CMnt,SMD*%
%TO.CRot,-90*%
X30349000Y41781000D03*
D11*
X33199000Y44631000D02*
X27499000Y44631000D01*
X27499000Y38931000D01*
X33199000Y38931000D01*
X33199000Y44631000D01*
D14*
%TO.P,"U4","1","VDD2A"*%
X27899000Y43531000D03*
D12*
%TO.P,"U4","2","LED2/NINTSEL"*%
X27899000Y43031000D03*
%TO.P,"U4","3","LED1/REGOFF"*%
X27899000Y42531000D03*
%TO.P,"U4","4","XTAL2"*%
X27899000Y42031000D03*
%TO.P,"U4","5","XTAL1/CLKIN"*%
X27899000Y41531000D03*
%TO.P,"U4","6","VDDCR"*%
X27899000Y41031000D03*
%TO.P,"U4","7","RXCLK/PHYAD1"*%
X27899000Y40531000D03*
%TO.P,"U4","8","RXD3/PHYAD2"*%
X27899000Y40031000D03*
%TO.P,"U4","9","RXD2/RMIISEL"*%
X28599000Y39331000D03*
%TO.P,"U4","10","RXD1/MODE1"*%
X29099000Y39331000D03*
%TO.P,"U4","11","RXD0/MODE0"*%
X29599000Y39331000D03*
%TO.P,"U4","12","VDDIO"*%
X30099000Y39331000D03*
%TO.P,"U4","13","RXER/RXD4/PHYAD0"*%
X30599000Y39331000D03*
%TO.P,"U4","14","CRS"*%
X31099000Y39331000D03*
%TO.P,"U4","15","COL/CRS_DV/MODE2"*%
X31599000Y39331000D03*
%TO.P,"U4","16","MDIO"*%
X32099000Y39331000D03*
%TO.P,"U4","17","MDC"*%
X32799000Y40031000D03*
%TO.P,"U4","18","NINT/TXER/TXD4"*%
X32799000Y40531000D03*
%TO.P,"U4","19","NRST"*%
X32799000Y41031000D03*
%TO.P,"U4","20","TXCLK"*%
X32799000Y41531000D03*
%TO.P,"U4","21","TXEN"*%
X32799000Y42031000D03*
%TO.P,"U4","22","TXD0"*%
X32799000Y42531000D03*
%TO.P,"U4","23","TXD1"*%
X32799000Y43031000D03*
%TO.P,"U4","24","TXD2"*%
X32799000Y43531000D03*
%TO.P,"U4","25","TXD3"*%
X32099000Y44231000D03*
%TO.P,"U4","26","RXDV"*%
X31599000Y44231000D03*
%TO.P,"U4","27","VDD1A"*%
X31099000Y44231000D03*
%TO.P,"U4","28","TXN"*%
X30599000Y44231000D03*
%TO.P,"U4","29","TXP"*%
X30099000Y44231000D03*
%TO.P,"U4","30","RXN"*%
X29599000Y44231000D03*
%TO.P,"U4","31","RXP"*%
X29099000Y44231000D03*
%TO.P,"U4","32","RBIAS"*%
X28599000Y44231000D03*
%TO.P,"U4","33","GND"*%
X31649000Y42281000D03*
X30849000Y43081000D03*
X29849000Y43081000D03*
X30349000Y41781000D03*
X31649000Y41281000D03*
X29049000Y41281000D03*
X30849000Y40481000D03*
X30349000Y41781000D03*
X29049000Y42281000D03*
X29849000Y40481000D03*
%TD*%
D10*
%TO.C,"MICRO_SD1"*%
%TO.CFtp,"TFC-WXCP11-08-LF"*%
%TO.CVal,"TFC-WXCP11-08-LF"*%
%TO.CLbN,"OLIMEX_Connectors-FP"*%
%TO.CMnt,SMD*%
%TO.CRot,180*%
X6727000Y28700000D03*
D11*
X13007000Y21680000D02*
X13007000Y34440000D01*
X807000Y34440000D01*
X807000Y21680000D01*
X13007000Y21680000D01*
D14*
%TO.P,"MICRO_SD1","1","DAT2/RES"*%
X2727000Y24850000D03*
D12*
%TO.P,"MICRO_SD1","2","CD/DAT3/CS"*%
X2727000Y25950000D03*
%TO.P,"MICRO_SD1","3","CMD/DI"*%
X2727000Y27050000D03*
%TO.P,"MICRO_SD1","4","VDD"*%
X2727000Y28150000D03*
%TO.P,"MICRO_SD1","5","CLK/SCLK"*%
X2727000Y29250000D03*
%TO.P,"MICRO_SD1","6","VSS"*%
X2727000Y30350000D03*
%TO.P,"MICRO_SD1","7","DAT0/DO"*%
X2727000Y31450000D03*
%TO.P,"MICRO_SD1","8","DAT1/RES"*%
X2727000Y32550000D03*
%TO.P,"MICRO_SD1","FID1"*%
X1007000Y21880000D03*
%TO.P,"MICRO_SD1","FID2"*%
X12807000Y22970000D03*
%TO.P,"MICRO_SD1","FID3"*%
X12807000Y34240000D03*
%TO.P,"MICRO_SD1","FID4"*%
X1007000Y34240000D03*
%TO.P,"MICRO_SD1","SH1","PACK1"*%
X11977000Y31610000D03*
%TO.P,"MICRO_SD1","SH2","PACK2"*%
X11977000Y25550000D03*
%TD*%
D10*
%TO.C,"R41"*%
%TO.CFtp,"0603"*%
%TO.CVal,"10R/R0603"*%
%TO.CLbN,"Resistors"*%
%TO.CMnt,SMD*%
%TO.CRot,180*%
X16633000Y28954000D03*
D13*
X18230659Y28255501D02*
X15035341Y28255501D01*
X15035341Y29652499D01*
X18230659Y29652499D01*
X18230659Y28255501D01*
D14*
%TO.P,"R41","1"*%
X17481360Y28954000D03*
D12*
%TO.P,"R41","2"*%
X15784640Y28954000D03*
%TD*%
D10*
%TO.C,"BUT1"*%
%TO.CFtp,"T1107A(6x3\u002C8x2\u002C5MM)"*%
%TO.CVal,"T1107A(6x3\u002C8x2\u002C5MM)"*%
%TO.CLbN,"OLIMEX_Buttons-FP"*%
%TO.CMnt,SMD*%
%TO.CRot,180*%
X5584000Y42670000D03*
D11*
X10283000Y42162000D02*
X10283000Y43178000D01*
X885000Y43178000D01*
X885000Y42162000D01*
X10283000Y42162000D01*
D14*
%TO.P,"BUT1","1"*%
X9521000Y42670000D03*
D12*
%TO.P,"BUT1","2"*%
X1647000Y42670000D03*
%TD*%
D10*
%TO.C,"RST1"*%
%TO.CFtp,"T1107A(6x3\u002C8x2\u002C5MM)"*%
%TO.CVal,"T1107A(6x3\u002C8x2\u002C5MM)"*%
%TO.CLbN,"OLIMEX_Buttons-FP"*%
%TO.CMnt,SMD*%
%TO.CRot,180*%
X5584000Y36828000D03*
D11*
X10283000Y36320000D02*
X10283000Y37336000D01*
X885000Y37336000D01*
X885000Y36320000D01*
X10283000Y36320000D01*
D14*
%TO.P,"RST1","1"*%
X9521000Y36828000D03*
D12*
%TO.P,"RST1","2"*%
X1647000Y36828000D03*
%TD*%
D10*
%TO.C,"C3"*%
%TO.CFtp,"1206"*%
%TO.CVal,"1nF/2000V/10\u0025/X7R/C1206"*%
%TO.CLbN,"Capacitors"*%
%TO.CMnt,SMD*%
%TO.CRot,-90*%
X22475000Y54608000D03*
D13*
X23574819Y52210241D02*
X21375181Y52210241D01*
X21375181Y57005759D01*
X23574819Y57005759D01*
X23574819Y52210241D01*
D14*
%TO.P,"C3","1"*%
X22475000Y56007540D03*
D12*
%TO.P,"C3","2"*%
X22475000Y53208460D03*
%TD*%
D10*
%TO.C,"C4"*%
%TO.CFtp,"1206"*%
%TO.CVal,"NA(1nF/2000V/10\u0025/X7R/C1206)"*%
%TO.CLbN,"Capacitors"*%
%TO.CMnt,SMD*%
%TO.CRot,90*%
X22475000Y62228000D03*
D13*
X23574819Y59830241D02*
X21375181Y59830241D01*
X21375181Y64625759D01*
X23574819Y64625759D01*
X23574819Y59830241D01*
D14*
%TO.P,"C4","1"*%
X22475000Y60828460D03*
D12*
%TO.P,"C4","2"*%
X22475000Y63627540D03*
%TD*%
D10*
%TO.C,"R14"*%
%TO.CFtp,"0603"*%
%TO.CVal,"2.2k/R0603"*%
%TO.CLbN,"Resistors"*%
%TO.CMnt,SMD*%
%TO.CRot,180*%
X45699500Y52677000D03*
D13*
X47297159Y51978501D02*
X44101841Y51978501D01*
X44101841Y53375499D01*
X47297159Y53375499D01*
X47297159Y51978501D01*
D14*
%TO.P,"R14","1"*%
X46547860Y52677000D03*
D12*
%TO.P,"R14","2"*%
X44851140Y52677000D03*
%TD*%
D10*
%TO.C,"C9"*%
%TO.CFtp,"0603"*%
%TO.CVal,"27pF/50V/5\u0025/C0G/C0603"*%
%TO.CLbN,"Capacitors"*%
%TO.CMnt,SMD*%
%TO.CRot,180*%
X25269000Y25525000D03*
D13*
X26866659Y24826501D02*
X23671341Y24826501D01*
X23671341Y26223499D01*
X26866659Y26223499D01*
X26866659Y24826501D01*
D14*
%TO.P,"C9","1"*%
X26117360Y25525000D03*
D12*
%TO.P,"C9","2"*%
X24420640Y25525000D03*
%TD*%
D10*
%TO.C,"C10"*%
%TO.CFtp,"0603"*%
%TO.CVal,"27pF/50V/5\u0025/C0G/C0603"*%
%TO.CLbN,"Capacitors"*%
%TO.CMnt,SMD*%
%TO.CRot,0*%
X40763000Y25525000D03*
D13*
X42360659Y24826501D02*
X39165341Y24826501D01*
X39165341Y26223499D01*
X42360659Y26223499D01*
X42360659Y24826501D01*
D14*
%TO.P,"C10","1"*%
X39914640Y25525000D03*
D12*
%TO.P,"C10","2"*%
X41611360Y25525000D03*
%TD*%
D10*
%TO.C,"C7"*%
%TO.CFtp,"0603"*%
%TO.CVal,"22uF/6.3V/20\u0025/X5R/C0603"*%
%TO.CLbN,"Capacitors"*%
%TO.CMnt,SMD*%
%TO.CRot,180*%
X25269000Y18667000D03*
D13*
X26866659Y17968501D02*
X23671341Y17968501D01*
X23671341Y19365499D01*
X26866659Y19365499D01*
X26866659Y17968501D01*
D14*
%TO.P,"C7","1"*%
X26117360Y18667000D03*
D12*
%TO.P,"C7","2"*%
X24420640Y18667000D03*
%TD*%
D10*
%TO.C,"C8"*%
%TO.CFtp,"0603"*%
%TO.CVal,"100nF/50V/20\u0025/Y5V/C0603"*%
%TO.CLbN,"Capacitors"*%
%TO.CMnt,SMD*%
%TO.CRot,0*%
X40255000Y22350000D03*
D13*
X41852659Y21651501D02*
X38657341Y21651501D01*
X38657341Y23048499D01*
X41852659Y23048499D01*
X41852659Y21651501D01*
D14*
%TO.P,"C8","1"*%
X39406640Y22350000D03*
D12*
%TO.P,"C8","2"*%
X41103360Y22350000D03*
%TD*%
D10*
%TO.C,"D1"*%
%TO.CFtp,"SMA-KA"*%
%TO.CVal,"1N5822/SS34/SMA"*%
%TO.CLbN,"OLIMEX_Diodes-FP"*%
%TO.CMnt,SMD*%
%TO.CRot,180*%
X45970000Y33145000D03*
D11*
X49470000Y32295000D02*
X49470000Y33995000D01*
X42470000Y33995000D01*
X42470000Y32295000D01*
X49470000Y32295000D01*
D14*
%TO.P,"D1","1","K"*%
X48470000Y33145000D03*
D12*
%TO.P,"D1","2","A"*%
X43470000Y33145000D03*
%TD*%
D10*
%TO.C,"FET2"*%
%TO.CFtp,"SOT23"*%
%TO.CVal,"WPM2015-3/TR"*%
%TO.CLbN,"OLIMEX_Transistors-FP"*%
%TO.CMnt,SMD*%
%TO.CRot,-90*%
X47748000Y36828000D03*
D11*
X49200500Y38630360D02*
X46298040Y38630360D01*
X46298040Y35020560D01*
X49200500Y35020560D01*
X49200500Y38630360D01*
D14*
%TO.P,"FET2","1"*%
X46798040Y35720560D03*
D12*
%TO.P,"FET2","2"*%
X48700500Y35720560D03*
%TO.P,"FET2","3"*%
X47745460Y37930360D03*
%TD*%
D10*
%TO.C,"Q1"*%
%TO.CFtp,"Q_49U3HMS"*%
%TO.CVal,"Q12MHz/20pF/30ppm/2P/HC-49SM(SMD)"*%
%TO.CLbN,"OLIMEX_Crystal-FP"*%
%TO.CMnt,SMD*%
%TO.CRot,0*%
X33016000Y27430000D03*
D11*
X25904000Y27980000D02*
X25904000Y26880000D01*
X40128000Y26880000D01*
X40128000Y27980000D01*
X25904000Y27980000D01*
D14*
%TO.P,"Q1","1","1"*%
X28317000Y27430000D03*
D12*
%TO.P,"Q1","2","2"*%
X37715000Y27430000D03*
%TD*%
D10*
%TO.C,"Q2"*%
%TO.CFtp,"SOT23"*%
%TO.CVal,"BC817-40(SOT23)"*%
%TO.CLbN,"OLIMEX_Transistors-FP"*%
%TO.CMnt,SMD*%
%TO.CRot,0*%
X21332000Y23620000D03*
D11*
X19529640Y25072500D02*
X19529640Y22170040D01*
X23139440Y22170040D01*
X23139440Y25072500D01*
X19529640Y25072500D01*
D14*
%TO.P,"Q2","1","B"*%
X22439440Y22670040D03*
D12*
%TO.P,"Q2","2","E"*%
X22439440Y24572500D03*
%TO.P,"Q2","3","C"*%
X20229640Y23617460D03*
%TD*%
D10*
%TO.C,"R13"*%
%TO.CFtp,"0603"*%
%TO.CVal,"1M/R0603"*%
%TO.CLbN,"Resistors"*%
%TO.CMnt,SMD*%
%TO.CRot,180*%
X44192000Y35939000D03*
D13*
X45789659Y35240501D02*
X42594341Y35240501D01*
X42594341Y36637499D01*
X45789659Y36637499D01*
X45789659Y35240501D01*
D14*
%TO.P,"R13","1"*%
X45040360Y35939000D03*
D12*
%TO.P,"R13","2"*%
X43343640Y35939000D03*
%TD*%
D10*
%TO.C,"R16"*%
%TO.CFtp,"0603"*%
%TO.CVal,"1k/R0603"*%
%TO.CLbN,"Resistors"*%
%TO.CMnt,SMD*%
%TO.CRot,180*%
X25269000Y21080000D03*
D13*
X26866659Y20381501D02*
X23671341Y20381501D01*
X23671341Y21778499D01*
X26866659Y21778499D01*
X26866659Y20381501D01*
D14*
%TO.P,"R16","1"*%
X26117360Y21080000D03*
D12*
%TO.P,"R16","2"*%
X24420640Y21080000D03*
%TD*%
D10*
%TO.C,"R52"*%
%TO.CFtp,"0603"*%
%TO.CVal,"10k/R0603"*%
%TO.CLbN,"Resistors"*%
%TO.CMnt,SMD*%
%TO.CRot,180*%
X12696000Y42543000D03*
D13*
X14293659Y41844501D02*
X11098341Y41844501D01*
X11098341Y43241499D01*
X14293659Y43241499D01*
X14293659Y41844501D01*
D14*
%TO.P,"R52","1"*%
X13544360Y42543000D03*
D12*
%TO.P,"R52","2"*%
X11847640Y42543000D03*
%TD*%
D10*
%TO.C,"R53"*%
%TO.CFtp,"0603"*%
%TO.CVal,"NA/R0603"*%
%TO.CLbN,"Resistors"*%
%TO.CMnt,SMD*%
%TO.CRot,0*%
X12696000Y41019000D03*
D13*
X14293659Y40320501D02*
X11098341Y40320501D01*
X11098341Y41717499D01*
X14293659Y41717499D01*
X14293659Y40320501D01*
D14*
%TO.P,"R53","1"*%
X11847640Y41019000D03*
D12*
%TO.P,"R53","2"*%
X13544360Y41019000D03*
%TD*%
D10*
%TO.C,"U3"*%
%TO.CFtp,"SSOP-20W"*%
%TO.CVal,"CH340T(SSOP20W)"*%
%TO.CLbN,"OLIMEX_IC-FP"*%
%TO.CMnt,SMD*%
%TO.CRot,90*%
X32127000Y20064000D03*
D11*
X27872500Y16976500D02*
X36381500Y16976500D01*
X36381500Y23151500D01*
X27872500Y23151500D01*
X27872500Y16976500D01*
D14*
%TO.P,"U3","1"*%
X35746500Y17139000D03*
D12*
%TO.P,"U3","2"*%
X35746500Y17789000D03*
%TO.P,"U3","3","TXD"*%
X35746500Y18439000D03*
%TO.P,"U3","4","RXD"*%
X35746500Y19089000D03*
%TO.P,"U3","5","V3"*%
X35746500Y19739000D03*
%TO.P,"U3","6","UD+"*%
X35746500Y20389000D03*
%TO.P,"U3","7","UD-"*%
X35746500Y21039000D03*
%TO.P,"U3","8","GND"*%
X35746500Y21689000D03*
%TO.P,"U3","9","XI"*%
X35746500Y22339000D03*
%TO.P,"U3","10","XO"*%
X35746500Y22989000D03*
%TO.P,"U3","11","CTS#"*%
X28507500Y22989000D03*
%TO.P,"U3","12","DSR#"*%
X28507500Y22339000D03*
%TO.P,"U3","13","RI#"*%
X28507500Y21689000D03*
%TO.P,"U3","14","DCD#"*%
X28507500Y21039000D03*
%TO.P,"U3","15","DTR#"*%
X28507500Y20389000D03*
%TO.P,"U3","16","RTS#"*%
X28507500Y19739000D03*
%TO.P,"U3","17","IR#"*%
X28507500Y19089000D03*
%TO.P,"U3","18"*%
X28507500Y18439000D03*
%TO.P,"U3","19","VCC"*%
X28507500Y17789000D03*
%TO.P,"U3","20","NOS#"*%
X28507500Y17139000D03*
%TD*%
D10*
%TO.C,"MH1"*%
%TO.CFtp,"Mounting_hole_Shield_3.3mm"*%
%TO.CVal,"Mounting_hole_Shield_3.3mm"*%
%TO.CLbN,"OLIMEX_Other-FP"*%
%TO.CMnt,TH*%
%TO.CRot,0*%
X46732000Y68705000D03*
D11*
X43582000Y71855000D02*
X43582000Y65555000D01*
X49882000Y65555000D01*
X49882000Y71855000D01*
X43582000Y71855000D01*
D12*
%TO.P,"MH1","GND1","GND1"*%
X45081000Y70356000D03*
X45081000Y66927000D03*
X49145000Y68705000D03*
X48383000Y70356000D03*
X44319000Y68705000D03*
X48383000Y67054000D03*
X46732000Y71118000D03*
X46732000Y68705000D03*
X46732000Y66292000D03*
%TD*%
D10*
%TO.C,"CON1"*%
%TO.CFtp,"HN1x20"*%
%TO.CVal,"NA(NH1x20)"*%
%TO.CLbN,"OLIMEX_Connectors-FP"*%
%TO.CMnt,SMD*%
%TO.CRot,0*%
X25396000Y11809000D03*
D11*
X377000Y12698000D02*
X377000Y10920000D01*
X50415000Y10920000D01*
X50415000Y12698000D01*
X377000Y12698000D01*
D14*
%TO.P,"CON1","1"*%
X1266000Y11809000D03*
D12*
%TO.P,"CON1","2"*%
X3806000Y11809000D03*
%TO.P,"CON1","3"*%
X6346000Y11809000D03*
%TO.P,"CON1","4"*%
X8886000Y11809000D03*
%TO.P,"CON1","5"*%
X11426000Y11809000D03*
%TO.P,"CON1","6"*%
X13966000Y11809000D03*
%TO.P,"CON1","7"*%
X16506000Y11809000D03*
%TO.P,"CON1","8"*%
X19046000Y11809000D03*
%TO.P,"CON1","9"*%
X21586000Y11809000D03*
%TO.P,"CON1","10"*%
X24126000Y11809000D03*
%TO.P,"CON1","11"*%
X26666000Y11809000D03*
%TO.P,"CON1","12"*%
X29206000Y11809000D03*
%TO.P,"CON1","13"*%
X31746000Y11809000D03*
%TO.P,"CON1","14"*%
X34286000Y11809000D03*
%TO.P,"CON1","15"*%
X36826000Y11809000D03*
%TO.P,"CON1","16"*%
X39366000Y11809000D03*
%TO.P,"CON1","17"*%
X41906000Y11809000D03*
%TO.P,"CON1","18"*%
X44446000Y11809000D03*
%TO.P,"CON1","19"*%
X46986000Y11809000D03*
%TO.P,"CON1","20"*%
X49526000Y11809000D03*
%TD*%
D10*
%TO.C,"LED1"*%
%TO.CFtp,"LED_0603_KA"*%
%TO.CVal,"LED/GREEN/0603"*%
%TO.CLbN,"OLIMEX_LEDs-FP"*%
%TO.CMnt,SMD*%
%TO.CRot,180*%
X45699500Y58900000D03*
D11*
X46861500Y58500000D02*
X46861500Y59300000D01*
X44537500Y59300000D01*
X44537500Y58500000D01*
X46861500Y58500000D01*
D14*
%TO.P,"LED1","1","K"*%
X46461500Y58900000D03*
D12*
%TO.P,"LED1","2","A"*%
X44937500Y58900000D03*
%TD*%
D10*
%TO.C,"R29"*%
%TO.CFtp,"0603"*%
%TO.CVal,"2.2k/R0603"*%
%TO.CLbN,"Resistors"*%
%TO.CMnt,SMD*%
%TO.CRot,0*%
X45699500Y57122000D03*
D13*
X47297159Y56423501D02*
X44101841Y56423501D01*
X44101841Y57820499D01*
X47297159Y57820499D01*
X47297159Y56423501D01*
D14*
%TO.P,"R29","1"*%
X44851140Y57122000D03*
D12*
%TO.P,"R29","2"*%
X46547860Y57122000D03*
%TD*%
D10*
%TO.C,"R21"*%
%TO.CFtp,"0603"*%
%TO.CVal,"2.2k/R0603"*%
%TO.CLbN,"Resistors"*%
%TO.CMnt,SMD*%
%TO.CRot,180*%
X11426000Y19937000D03*
D13*
X13023659Y19238501D02*
X9828341Y19238501D01*
X9828341Y20635499D01*
X13023659Y20635499D01*
X13023659Y19238501D01*
D14*
%TO.P,"R21","1"*%
X12274360Y19937000D03*
D12*
%TO.P,"R21","2"*%
X10577640Y19937000D03*
%TD*%
D10*
%TO.C,"R23"*%
%TO.CFtp,"0603"*%
%TO.CVal,"2.2k/R0603"*%
%TO.CLbN,"Resistors"*%
%TO.CMnt,SMD*%
%TO.CRot,180*%
X16887000Y35177000D03*
D13*
X18484659Y34478501D02*
X15289341Y34478501D01*
X15289341Y35875499D01*
X18484659Y35875499D01*
X18484659Y34478501D01*
D14*
%TO.P,"R23","1"*%
X17735360Y35177000D03*
D12*
%TO.P,"R23","2"*%
X16038640Y35177000D03*
%TD*%
D10*
%TO.C,"D2"*%
%TO.CFtp,"DO214AA_1(K)-2(A)"*%
%TO.CVal,"SMBJ6.0A(DO-214AA)"*%
%TO.CLbN,"OLIMEX_Diodes-FP"*%
%TO.CMnt,SMD*%
%TO.CRot,180*%
X46224000Y29843000D03*
D11*
X49290000Y28700000D02*
X49290000Y30986000D01*
X43158000Y30986000D01*
X43158000Y28700000D01*
X49290000Y28700000D01*
D14*
%TO.P,"D2","1","K"*%
X48401000Y29843000D03*
D12*
%TO.P,"D2","2","A"*%
X44047000Y29843000D03*
%TD*%
D10*
%TO.C,"FET1"*%
%TO.CFtp,"SOT23"*%
%TO.CVal,"WPM2015-3/TR"*%
%TO.CLbN,"OLIMEX_Transistors-FP"*%
%TO.CMnt,SMD*%
%TO.CRot,90*%
X20062000Y36320000D03*
D11*
X18609500Y34517640D02*
X21511960Y34517640D01*
X21511960Y38127440D01*
X18609500Y38127440D01*
X18609500Y34517640D01*
D14*
%TO.P,"FET1","1"*%
X21011960Y37427440D03*
D12*
%TO.P,"FET1","2"*%
X19109500Y37427440D03*
%TO.P,"FET1","3"*%
X20064540Y35217640D03*
%TD*%
D10*
%TO.C,"R1"*%
%TO.CFtp,"0603"*%
%TO.CVal,"1k/R0603"*%
%TO.CLbN,"Resistors"*%
%TO.CMnt,SMD*%
%TO.CRot,180*%
X20189000Y42289000D03*
D13*
X21786659Y41590501D02*
X18591341Y41590501D01*
X18591341Y42987499D01*
X21786659Y42987499D01*
X21786659Y41590501D01*
D14*
%TO.P,"R1","1"*%
X21037360Y42289000D03*
D12*
%TO.P,"R1","2"*%
X19340640Y42289000D03*
%TD*%
D10*
%TO.C,"L1"*%
%TO.CFtp,"L_0805_5MIL_DWS"*%
%TO.CVal,"FB0805/600R/2A"*%
%TO.CLbN,"OLIMEX_RLC-FP"*%
%TO.CMnt,SMD*%
%TO.CRot,0*%
X16506000Y37844000D03*
D11*
X14728000Y38479000D02*
X14728000Y37209000D01*
X18284000Y37209000D01*
X18284000Y38479000D01*
X14728000Y38479000D01*
D14*
%TO.P,"L1","1","1"*%
X15490000Y37844000D03*
D12*
%TO.P,"L1","2","2"*%
X17522000Y37844000D03*
%TD*%
D10*
%TO.C,"R2"*%
%TO.CFtp,"0603"*%
%TO.CVal,"10k/R0603"*%
%TO.CLbN,"Resistors"*%
%TO.CMnt,SMD*%
%TO.CRot,0*%
X20188999Y39241000D03*
D13*
X21786658Y38542501D02*
X18591340Y38542501D01*
X18591340Y39939499D01*
X21786658Y39939499D01*
X21786658Y38542501D01*
D14*
%TO.P,"R2","1"*%
X19340639Y39241000D03*
D12*
%TO.P,"R2","2"*%
X21037359Y39241000D03*
%TD*%
D10*
%TO.C,"T1"*%
%TO.CFtp,"SOT23"*%
%TO.CVal,"DTC114YKA"*%
%TO.CLbN,"OLIMEX_Transistors-FP"*%
%TO.CMnt,SMD*%
%TO.CRot,180*%
X18792000Y44702000D03*
D11*
X20594360Y43249500D02*
X20594360Y46151960D01*
X16984560Y46151960D01*
X16984560Y43249500D01*
X20594360Y43249500D01*
D14*
%TO.P,"T1","1","B"*%
X17684560Y45651960D03*
D12*
%TO.P,"T1","2","E"*%
X17684560Y43749500D03*
%TO.P,"T1","3","C"*%
X19894360Y44704540D03*
%TD*%
D10*
%TO.C,"C2"*%
%TO.CFtp,"0603"*%
%TO.CVal,"22uF/6.3V/20\u0025/X5R/C0603"*%
%TO.CLbN,"Capacitors"*%
%TO.CMnt,SMD*%
%TO.CRot,0*%
X20188999Y40765000D03*
D13*
X21786658Y40066501D02*
X18591340Y40066501D01*
X18591340Y41463499D01*
X21786658Y41463499D01*
X21786658Y40066501D01*
D14*
%TO.P,"C2","1"*%
X19340639Y40765000D03*
D12*
%TO.P,"C2","2"*%
X21037359Y40765000D03*
%TD*%
D10*
%TO.C,"R36"*%
%TO.CFtp,"0603"*%
%TO.CVal,"NA/R0603"*%
%TO.CLbN,"Resistors"*%
%TO.CMnt,SMD*%
%TO.CRot,180*%
X8251000Y21461000D03*
D13*
X9848659Y20762501D02*
X6653341Y20762501D01*
X6653341Y22159499D01*
X9848659Y22159499D01*
X9848659Y20762501D01*
D14*
%TO.P,"R36","1"*%
X9099360Y21461000D03*
D12*
%TO.P,"R36","2"*%
X7402640Y21461000D03*
%TD*%
D10*
%TO.C,"R24"*%
%TO.CFtp,"0603"*%
%TO.CVal,"2.2k/R0603"*%
%TO.CLbN,"Resistors"*%
%TO.CMnt,SMD*%
%TO.CRot,180*%
X16887000Y33653000D03*
D13*
X18484659Y32954501D02*
X15289341Y32954501D01*
X15289341Y34351499D01*
X18484659Y34351499D01*
X18484659Y32954501D01*
D14*
%TO.P,"R24","1"*%
X17735360Y33653000D03*
D12*
%TO.P,"R24","2"*%
X16038640Y33653000D03*
%TD*%
D10*
%TO.C,"D5"*%
%TO.CFtp,"SOT23-3"*%
%TO.CVal,"BAT54C(SOT23-3)"*%
%TO.CLbN,"OLIMEX_Diodes-FP"*%
%TO.CMnt,SMD*%
%TO.CRot,180*%
X16633000Y40257000D03*
D11*
X18433000Y38807000D02*
X18433000Y41707000D01*
X14833000Y41707000D01*
X14833000Y38807000D01*
X18433000Y38807000D01*
D14*
%TO.P,"D5","1","A1"*%
X15533000Y41207000D03*
D12*
%TO.P,"D5","2","A2"*%
X15533000Y39307000D03*
%TO.P,"D5","3","CC"*%
X17733000Y40257000D03*
%TD*%
D10*
%TO.C,"D4"*%
%TO.CFtp,"SOD-123_1C-2A_KA"*%
%TO.CVal,"1N5819S4/SOD123"*%
%TO.CLbN,"OLIMEX_Diodes-FP"*%
%TO.CMnt,SMD*%
%TO.CRot,90*%
X37842000Y17016000D03*
D11*
X37142000Y14616000D02*
X38542000Y14616000D01*
X38542000Y19416000D01*
X37142000Y19416000D01*
X37142000Y14616000D01*
D14*
%TO.P,"D4","1","K"*%
X37842000Y15116000D03*
D12*
%TO.P,"D4","2","A"*%
X37842000Y18916000D03*
%TD*%
D10*
%TO.C,"D3"*%
%TO.CFtp,"SOD-123_1C-2A_KA"*%
%TO.CVal,"1N5819S4/SOD123"*%
%TO.CLbN,"OLIMEX_Diodes-FP"*%
%TO.CMnt,SMD*%
%TO.CRot,-90*%
X39874000Y17016000D03*
D11*
X40574000Y19416000D02*
X39174000Y19416000D01*
X39174000Y14616000D01*
X40574000Y14616000D01*
X40574000Y19416000D01*
D14*
%TO.P,"D3","1","K"*%
X39874000Y18916000D03*
D12*
%TO.P,"D3","2","A"*%
X39874000Y15116000D03*
%TD*%
D10*
%TO.C,"FID3"*%
%TO.CFtp,"Fiducial1x3"*%
%TO.CVal,"Fiducial"*%
%TO.CLbN,"OLIMEX_Other-FP"*%
%TO.CMnt,SMD*%
%TO.CRot,0*%
X47825000Y63950000D03*
D11*
X47325000Y64450000D02*
X47325000Y63450000D01*
X48325000Y63450000D01*
X48325000Y64450000D01*
X47325000Y64450000D01*
D12*
%TO.P,"FID3","Fid1","FID\u002A"*%
X47825000Y63950000D03*
%TD*%
D10*
%TO.C,"R35"*%
%TO.CFtp,"0603"*%
%TO.CVal,"NA/R0603"*%
%TO.CLbN,"Resistors"*%
%TO.CMnt,SMD*%
%TO.CRot,0*%
X16887000Y31875000D03*
D13*
X18484659Y31176501D02*
X15289341Y31176501D01*
X15289341Y32573499D01*
X18484659Y32573499D01*
X18484659Y31176501D01*
D14*
%TO.P,"R35","1"*%
X16038640Y31875000D03*
D12*
%TO.P,"R35","2"*%
X17735360Y31875000D03*
%TD*%
D10*
%TO.C,"R34"*%
%TO.CFtp,"0603"*%
%TO.CVal,"NA/R0603"*%
%TO.CLbN,"Resistors"*%
%TO.CMnt,SMD*%
%TO.CRot,180*%
X11426000Y21461000D03*
D13*
X13023659Y20762501D02*
X9828341Y20762501D01*
X9828341Y22159499D01*
X13023659Y22159499D01*
X13023659Y20762501D01*
D14*
%TO.P,"R34","1"*%
X12274360Y21461000D03*
D12*
%TO.P,"R34","2"*%
X10577640Y21461000D03*
%TD*%
D10*
%TO.C,"R25"*%
%TO.CFtp,"0603"*%
%TO.CVal,"2.2k/R0603"*%
%TO.CLbN,"Resistors"*%
%TO.CMnt,SMD*%
%TO.CRot,180*%
X8251000Y19937000D03*
D13*
X9848659Y19238501D02*
X6653341Y19238501D01*
X6653341Y20635499D01*
X9848659Y20635499D01*
X9848659Y19238501D01*
D14*
%TO.P,"R25","1"*%
X9099360Y19937000D03*
D12*
%TO.P,"R25","2"*%
X7402640Y19937000D03*
%TD*%
D10*
%TO.C,"C22"*%
%TO.CFtp,"0603"*%
%TO.CVal,"1uF/C0603"*%
%TO.CLbN,"Capacitors"*%
%TO.CMnt,SMD*%
%TO.CRot,180*%
X18538000Y21715000D03*
D13*
X20135659Y21016501D02*
X16940341Y21016501D01*
X16940341Y22413499D01*
X20135659Y22413499D01*
X20135659Y21016501D01*
D14*
%TO.P,"C22","1"*%
X19386360Y21715000D03*
D12*
%TO.P,"C22","2"*%
X17689640Y21715000D03*
%TD*%
D10*
%TO.C,"R22"*%
%TO.CFtp,"0603"*%
%TO.CVal,"10k/R0603"*%
%TO.CLbN,"Resistors"*%
%TO.CMnt,SMD*%
%TO.CRot,180*%
X17014000Y23366000D03*
D13*
X18611659Y22667501D02*
X15416341Y22667501D01*
X15416341Y24064499D01*
X18611659Y24064499D01*
X18611659Y22667501D01*
D14*
%TO.P,"R22","1"*%
X17862360Y23366000D03*
D12*
%TO.P,"R22","2"*%
X16165640Y23366000D03*
%TD*%
D10*
%TO.C,"Q3"*%
%TO.CFtp,"SOT23"*%
%TO.CVal,"BC817-40(SOT23)"*%
%TO.CLbN,"OLIMEX_Transistors-FP"*%
%TO.CMnt,SMD*%
%TO.CRot,0*%
X21205000Y20064000D03*
D11*
X19402640Y21516500D02*
X19402640Y18614040D01*
X23012440Y18614040D01*
X23012440Y21516500D01*
X19402640Y21516500D01*
D14*
%TO.P,"Q3","1","B"*%
X22312440Y19114040D03*
D12*
%TO.P,"Q3","2","E"*%
X22312440Y21016500D03*
%TO.P,"Q3","3","C"*%
X20102640Y20061460D03*
%TD*%
D10*
%TO.C,"R17"*%
%TO.CFtp,"0603"*%
%TO.CVal,"220R/R0603"*%
%TO.CLbN,"Resistors"*%
%TO.CMnt,SMD*%
%TO.CRot,180*%
X17649000Y20064000D03*
D13*
X19246659Y19365501D02*
X16051341Y19365501D01*
X16051341Y20762499D01*
X19246659Y20762499D01*
X19246659Y19365501D01*
D14*
%TO.P,"R17","1"*%
X18497360Y20064000D03*
D12*
%TO.P,"R17","2"*%
X16800640Y20064000D03*
%TD*%
D10*
%TO.C,"R20"*%
%TO.CFtp,"0603"*%
%TO.CVal,"10k/R0603"*%
%TO.CLbN,"Resistors"*%
%TO.CMnt,SMD*%
%TO.CRot,180*%
X12696000Y39241000D03*
D13*
X14293659Y38542501D02*
X11098341Y38542501D01*
X11098341Y39939499D01*
X14293659Y39939499D01*
X14293659Y38542501D01*
D14*
%TO.P,"R20","1"*%
X13544360Y39241000D03*
D12*
%TO.P,"R20","2"*%
X11847640Y39241000D03*
%TD*%
D10*
%TO.C,"R42"*%
%TO.CFtp,"0603"*%
%TO.CVal,"220R/R0603"*%
%TO.CLbN,"Resistors"*%
%TO.CMnt,SMD*%
%TO.CRot,180*%
X12696000Y35939000D03*
D13*
X14293659Y35240501D02*
X11098341Y35240501D01*
X11098341Y36637499D01*
X14293659Y36637499D01*
X14293659Y35240501D01*
D14*
%TO.P,"R42","1"*%
X13544360Y35939000D03*
D12*
%TO.P,"R42","2"*%
X11847640Y35939000D03*
%TD*%
D10*
%TO.C,"R44"*%
%TO.CFtp,"0603"*%
%TO.CVal,"4.7k/R0603"*%
%TO.CLbN,"Resistors"*%
%TO.CMnt,SMD*%
%TO.CRot,-90*%
X28170000Y8386721D03*
D13*
X28868499Y6789062D02*
X27471501Y6789062D01*
X27471501Y9984380D01*
X28868499Y9984380D01*
X28868499Y6789062D01*
D14*
%TO.P,"R44","1"*%
X28170000Y9235081D03*
D12*
%TO.P,"R44","2"*%
X28170000Y7538361D03*
%TD*%
D10*
%TO.C,"C23"*%
%TO.CFtp,"0603"*%
%TO.CVal,"100nF/6.3V/20\u0025/X5R/C0603"*%
%TO.CLbN,"Capacitors"*%
%TO.CMnt,SMD*%
%TO.CRot,180*%
X38625000Y9219180D03*
D13*
X40222659Y8520681D02*
X37027341Y8520681D01*
X37027341Y9917679D01*
X40222659Y9917679D01*
X40222659Y8520681D01*
D14*
%TO.P,"C23","1"*%
X39473360Y9219180D03*
D12*
%TO.P,"C23","2"*%
X37776640Y9219180D03*
%TD*%
D10*
%TO.C,"C26"*%
%TO.CFtp,"0603"*%
%TO.CVal,"1uF/6.3V/20\u0025/X5R/C0603"*%
%TO.CLbN,"Capacitors"*%
%TO.CMnt,SMD*%
%TO.CRot,0*%
X17925000Y7486829D03*
D13*
X19522659Y6788330D02*
X16327341Y6788330D01*
X16327341Y8185328D01*
X19522659Y8185328D01*
X19522659Y6788330D01*
D14*
%TO.P,"C26","1"*%
X17076640Y7486829D03*
D12*
%TO.P,"C26","2"*%
X18773360Y7486829D03*
%TD*%
D10*
%TO.C,"I²C1"*%
%TO.CFtp,"JST_SH_SM04B-SRSS-TB_1x04-1MP_P1.00mm_Horizontal"*%
%TO.CVal,"Conn_01x04_P1.00mm_Stemma qt/Qwiic"*%
%TO.CLbN,"Connector_JST"*%
%TO.CMnt,SMD*%
%TO.CRot,0*%
X11930000Y3440000D03*
D13*
X15829999Y160001D02*
X8030001Y160001D01*
X8030001Y6719999D01*
X15829999Y6719999D01*
X15829999Y160001D01*
D14*
%TO.P,"I²C1","1","Pin_1"*%
X10430000Y5440000D03*
D12*
%TO.P,"I²C1","2","Pin_2"*%
X11430000Y5440000D03*
%TO.P,"I²C1","3","Pin_3"*%
X12430000Y5440000D03*
%TO.P,"I²C1","4","Pin_4"*%
X13430000Y5440000D03*
%TO.P,"I²C1","MP"*%
X14730000Y1565000D03*
X9130000Y1565000D03*
%TD*%
D10*
%TO.C,"C32"*%
%TO.CFtp,"0603"*%
%TO.CVal,"1uF/6.3V/20\u0025/X5R/C0603"*%
%TO.CLbN,"Capacitors"*%
%TO.CMnt,SMD*%
%TO.CRot,0*%
X65826560Y7585000D03*
D13*
X67424219Y6886501D02*
X64228901Y6886501D01*
X64228901Y8283499D01*
X67424219Y8283499D01*
X67424219Y6886501D01*
D14*
%TO.P,"C32","1"*%
X64978200Y7585000D03*
D12*
%TO.P,"C32","2"*%
X66674920Y7585000D03*
%TD*%
D10*
%TO.C,"C19"*%
%TO.CFtp,"1210"*%
%TO.CVal,"330uF/6.3V/20\u0025/X5R/C1210"*%
%TO.CLbN,"Capacitors"*%
%TO.CMnt,SMD*%
%TO.CRot,180*%
X46225000Y26400000D03*
D13*
X48813259Y24952201D02*
X43636741Y24952201D01*
X43636741Y27847799D01*
X48813259Y27847799D01*
X48813259Y24952201D01*
D14*
%TO.P,"C19","1"*%
X47977600Y26400000D03*
D12*
%TO.P,"C19","2"*%
X44472400Y26400000D03*
%TD*%
D10*
%TO.C,"R30"*%
%TO.CFtp,"0603"*%
%TO.CVal,"4.7k/R0603"*%
%TO.CLbN,"Resistors"*%
%TO.CMnt,SMD*%
%TO.CRot,-90*%
X4560000Y8388360D03*
D13*
X5258499Y6790701D02*
X3861501Y6790701D01*
X3861501Y9986019D01*
X5258499Y9986019D01*
X5258499Y6790701D01*
D14*
%TO.P,"R30","1"*%
X4560000Y9236720D03*
D12*
%TO.P,"R30","2"*%
X4560000Y7540000D03*
%TD*%
D10*
%TO.C,"I²C0"*%
%TO.CFtp,"JST_SH_SM04B-SRSS-TB_1x04-1MP_P1.00mm_Horizontal"*%
%TO.CVal,"Conn_01x04_P1.00mm_Stemma qt/Qwiic"*%
%TO.CLbN,"Connector_JST"*%
%TO.CMnt,SMD*%
%TO.CRot,0*%
X4060000Y3440000D03*
D13*
X7959999Y160001D02*
X160001Y160001D01*
X160001Y6719999D01*
X7959999Y6719999D01*
X7959999Y160001D01*
D14*
%TO.P,"I²C0","1","Pin_1"*%
X2560000Y5440000D03*
D12*
%TO.P,"I²C0","2","Pin_2"*%
X3560000Y5440000D03*
%TO.P,"I²C0","3","Pin_3"*%
X4560000Y5440000D03*
%TO.P,"I²C0","4","Pin_4"*%
X5560000Y5440000D03*
%TO.P,"I²C0","MP"*%
X1260000Y1565000D03*
X6860000Y1565000D03*
%TD*%
D10*
%TO.C,""*%
%TO.CFtp,""*%
%TO.CVal,""*%
%TO.CLbN,""*%
%TO.CMnt,Other*%
%TO.CRot,0*%
X26300000Y54775000D03*
D11*
X25595000Y55480000D02*
X25595000Y54070000D01*
X27005000Y54070000D01*
X27005000Y55480000D01*
X25595000Y55480000D01*
D12*
%TO.P,"",*%
X26300000Y54775000D03*
%TD*%
D10*
%TO.C,"C25"*%
%TO.CFtp,"0603"*%
%TO.CVal,"1uF/6.3V/20\u0025/X5R/C0603"*%
%TO.CLbN,"Capacitors"*%
%TO.CMnt,SMD*%
%TO.CRot,0*%
X2285000Y7590000D03*
D13*
X3882659Y6891501D02*
X687341Y6891501D01*
X687341Y8288499D01*
X3882659Y8288499D01*
X3882659Y6891501D01*
D14*
%TO.P,"C25","1"*%
X1436640Y7590000D03*
D12*
%TO.P,"C25","2"*%
X3133360Y7590000D03*
%TD*%
D10*
%TO.C,"I²C5"*%
%TO.CFtp,"JST_SH_SM04B-SRSS-TB_1x04-1MP_P1.00mm_Horizontal"*%
%TO.CVal,"Conn_01x04_P1.00mm_Stemma qt/Qwiic"*%
%TO.CLbN,"Connector_JST"*%
%TO.CMnt,SMD*%
%TO.CRot,0*%
X51860000Y3434115D03*
D13*
X55759999Y154116D02*
X47960001Y154116D01*
X47960001Y6714114D01*
X55759999Y6714114D01*
X55759999Y154116D01*
D14*
%TO.P,"I²C5","1","Pin_1"*%
X50360000Y5434115D03*
D12*
%TO.P,"I²C5","2","Pin_2"*%
X51360000Y5434115D03*
%TO.P,"I²C5","3","Pin_3"*%
X52360000Y5434115D03*
%TO.P,"I²C5","4","Pin_4"*%
X53360000Y5434115D03*
%TO.P,"I²C5","MP"*%
X54660000Y1559115D03*
X49060000Y1559115D03*
%TD*%
D10*
%TO.C,"I²C6"*%
%TO.CFtp,"JST_SH_SM04B-SRSS-TB_1x04-1MP_P1.00mm_Horizontal"*%
%TO.CVal,"Conn_01x04_P1.00mm_Stemma qt/Qwiic"*%
%TO.CLbN,"Connector_JST"*%
%TO.CMnt,SMD*%
%TO.CRot,0*%
X59730000Y3435112D03*
D13*
X63629999Y155113D02*
X55830001Y155113D01*
X55830001Y6715111D01*
X63629999Y6715111D01*
X63629999Y155113D01*
D14*
%TO.P,"I²C6","1","Pin_1"*%
X58230000Y5435112D03*
D12*
%TO.P,"I²C6","2","Pin_2"*%
X59230000Y5435112D03*
%TO.P,"I²C6","3","Pin_3"*%
X60230000Y5435112D03*
%TO.P,"I²C6","4","Pin_4"*%
X61230000Y5435112D03*
%TO.P,"I²C6","MP"*%
X56930000Y1560112D03*
X62530000Y1560112D03*
%TD*%
D10*
%TO.C,"R38"*%
%TO.CFtp,"0603"*%
%TO.CVal,"4.7k/R0603"*%
%TO.CLbN,"Resistors"*%
%TO.CMnt,SMD*%
%TO.CRot,-90*%
X21775000Y8387649D03*
D13*
X22473499Y6789990D02*
X21076501Y6789990D01*
X21076501Y9985308D01*
X22473499Y9985308D01*
X22473499Y6789990D01*
D14*
%TO.P,"R38","1"*%
X21775000Y9236009D03*
D12*
%TO.P,"R38","2"*%
X21775000Y7539289D03*
%TD*%
D10*
%TO.C,"I²C3"*%
%TO.CFtp,"JST_SH_SM04B-SRSS-TB_1x04-1MP_P1.00mm_Horizontal"*%
%TO.CVal,"Conn_01x04_P1.00mm_Stemma qt/Qwiic"*%
%TO.CLbN,"Connector_JST"*%
%TO.CMnt,SMD*%
%TO.CRot,0*%
X27670000Y3436721D03*
D13*
X31569999Y156722D02*
X23770001Y156722D01*
X23770001Y6716720D01*
X31569999Y6716720D01*
X31569999Y156722D01*
D14*
%TO.P,"I²C3","1","Pin_1"*%
X26170000Y5436721D03*
D12*
%TO.P,"I²C3","2","Pin_2"*%
X27170000Y5436721D03*
%TO.P,"I²C3","3","Pin_3"*%
X28170000Y5436721D03*
%TO.P,"I²C3","4","Pin_4"*%
X29170000Y5436721D03*
%TO.P,"I²C3","MP"*%
X30470000Y1561721D03*
X24870000Y1561721D03*
%TD*%
D10*
%TO.C,"R50"*%
%TO.CFtp,"0603"*%
%TO.CVal,"4.7k/R0603"*%
%TO.CLbN,"Resistors"*%
%TO.CMnt,SMD*%
%TO.CRot,-90*%
X53835000Y8384115D03*
D13*
X54533499Y6786456D02*
X53136501Y6786456D01*
X53136501Y9981774D01*
X54533499Y9981774D01*
X54533499Y6786456D01*
D14*
%TO.P,"R50","1"*%
X53835000Y9232475D03*
D12*
%TO.P,"R50","2"*%
X53835000Y7535755D03*
%TD*%
D10*
%TO.C,"R3"*%
%TO.CFtp,"0603"*%
%TO.CVal,"5.1k/R0603"*%
%TO.CLbN,"Resistors"*%
%TO.CMnt,SMD*%
%TO.CRot,0*%
X51250000Y61350000D03*
D13*
X52847659Y60651501D02*
X49652341Y60651501D01*
X49652341Y62048499D01*
X52847659Y62048499D01*
X52847659Y60651501D01*
D14*
%TO.P,"R3","1"*%
X50401640Y61350000D03*
D12*
%TO.P,"R3","2"*%
X52098360Y61350000D03*
%TD*%
D10*
%TO.C,"C28"*%
%TO.CFtp,"0603"*%
%TO.CVal,"1uF/6.3V/20\u0025/X5R/C0603"*%
%TO.CLbN,"Capacitors"*%
%TO.CMnt,SMD*%
%TO.CRot,0*%
X57955840Y7585112D03*
D13*
X59553499Y6886613D02*
X56358181Y6886613D01*
X56358181Y8283611D01*
X59553499Y8283611D01*
X59553499Y6886613D01*
D14*
%TO.P,"C28","1"*%
X57107480Y7585112D03*
D12*
%TO.P,"C28","2"*%
X58804200Y7585112D03*
%TD*%
D10*
%TO.C,"REF\u002A\u002A"*%
%TO.CFtp,"Converter_DCDC_RECOM_R-78B-2.0_THT"*%
%TO.CVal,"Converter_DCDC_RECOM_R-78B-2.0_THT"*%
%TO.CLbN,"Converter_DCDC"*%
%TO.CMnt,TH*%
%TO.CRot,-90*%
X57725000Y18875000D03*
D13*
X59974999Y10335001D02*
X50975001Y10335001D01*
X50975001Y22334999D01*
X59974999Y22334999D01*
X59974999Y10335001D01*
D14*
%TO.P,"REF\u002A\u002A","1"*%
X57725000Y18875000D03*
D12*
%TO.P,"REF\u002A\u002A","2"*%
X57725000Y16335000D03*
%TO.P,"REF\u002A\u002A","3"*%
X57725000Y13795000D03*
%TD*%
D10*
%TO.C,"R45"*%
%TO.CFtp,"0603"*%
%TO.CVal,"4.7k/R0603"*%
%TO.CLbN,"Resistors"*%
%TO.CMnt,SMD*%
%TO.CRot,-90*%
X52360000Y8380835D03*
D13*
X53058499Y6783176D02*
X51661501Y6783176D01*
X51661501Y9978494D01*
X53058499Y9978494D01*
X53058499Y6783176D01*
D14*
%TO.P,"R45","1"*%
X52360000Y9229195D03*
D12*
%TO.P,"R45","2"*%
X52360000Y7532475D03*
%TD*%
D10*
%TO.C,"R33"*%
%TO.CFtp,"0603"*%
%TO.CVal,"4.7k/R0603"*%
%TO.CLbN,"Resistors"*%
%TO.CMnt,SMD*%
%TO.CRot,-90*%
X60230000Y8385112D03*
D13*
X60928499Y6787453D02*
X59531501Y6787453D01*
X59531501Y9982771D01*
X60928499Y9982771D01*
X60928499Y6787453D01*
D14*
%TO.P,"R33","1"*%
X60230000Y9233472D03*
D12*
%TO.P,"R33","2"*%
X60230000Y7536752D03*
%TD*%
D10*
%TO.C,"REF\u002A\u002A"*%
%TO.CFtp,"Converter_DCDC_RECOM_R-78B-2.0_THT"*%
%TO.CVal,"Converter_DCDC_RECOM_R-78B-2.0_THT"*%
%TO.CLbN,"Converter_DCDC"*%
%TO.CMnt,TH*%
%TO.CRot,-90*%
X57717500Y30935000D03*
D13*
X59967499Y22395001D02*
X50967501Y22395001D01*
X50967501Y34394999D01*
X59967499Y34394999D01*
X59967499Y22395001D01*
D14*
%TO.P,"REF\u002A\u002A","1"*%
X57717500Y30935000D03*
D12*
%TO.P,"REF\u002A\u002A","2"*%
X57717500Y28395000D03*
%TO.P,"REF\u002A\u002A","3"*%
X57717500Y25855000D03*
%TD*%
D10*
%TO.C,"R37"*%
%TO.CFtp,"0603"*%
%TO.CVal,"4.7k/R0603"*%
%TO.CLbN,"Resistors"*%
%TO.CMnt,SMD*%
%TO.CRot,-90*%
X6035000Y8390000D03*
D13*
X6733499Y6792341D02*
X5336501Y6792341D01*
X5336501Y9987659D01*
X6733499Y9987659D01*
X6733499Y6792341D01*
D14*
%TO.P,"R37","1"*%
X6035000Y9238360D03*
D12*
%TO.P,"R37","2"*%
X6035000Y7541640D03*
%TD*%
D10*
%TO.C,"R28"*%
%TO.CFtp,"0603"*%
%TO.CVal,"4.7k/R0603"*%
%TO.CLbN,"Resistors"*%
%TO.CMnt,SMD*%
%TO.CRot,180*%
X35345000Y9220000D03*
D13*
X36942659Y8521501D02*
X33747341Y8521501D01*
X33747341Y9918499D01*
X36942659Y9918499D01*
X36942659Y8521501D01*
D14*
%TO.P,"R28","1"*%
X36193360Y9220000D03*
D12*
%TO.P,"R28","2"*%
X34496640Y9220000D03*
%TD*%
D10*
%TO.C,"R49"*%
%TO.CFtp,"0603"*%
%TO.CVal,"4.7k/R0603"*%
%TO.CLbN,"Resistors"*%
%TO.CMnt,SMD*%
%TO.CRot,-90*%
X29645000Y8386721D03*
D13*
X30343499Y6789062D02*
X28946501Y6789062D01*
X28946501Y9984380D01*
X30343499Y9984380D01*
X30343499Y6789062D01*
D14*
%TO.P,"R49","1"*%
X29645000Y9235081D03*
D12*
%TO.P,"R49","2"*%
X29645000Y7538361D03*
%TD*%
D10*
%TO.C,"C31"*%
%TO.CFtp,"0603"*%
%TO.CVal,"1uF/6.3V/20\u0025/X5R/C0603"*%
%TO.CLbN,"Capacitors"*%
%TO.CMnt,SMD*%
%TO.CRot,0*%
X50084160Y7584115D03*
D13*
X51681819Y6885616D02*
X48486501Y6885616D01*
X48486501Y8282614D01*
X51681819Y8282614D01*
X51681819Y6885616D01*
D14*
%TO.P,"C31","1"*%
X49235800Y7584115D03*
D12*
%TO.P,"C31","2"*%
X50932520Y7584115D03*
%TD*%
D10*
%TO.C,"I²C4"*%
%TO.CFtp,"JST_SH_SM04B-SRSS-TB_1x04-1MP_P1.00mm_Horizontal"*%
%TO.CVal,"Conn_01x04_P1.00mm_Stemma qt/Qwiic"*%
%TO.CLbN,"Connector_JST"*%
%TO.CMnt,SMD*%
%TO.CRot,0*%
X43990000Y3433893D03*
D13*
X47889999Y153894D02*
X40090001Y153894D01*
X40090001Y6713892D01*
X47889999Y6713892D01*
X47889999Y153894D01*
D14*
%TO.P,"I²C4","1","Pin_1"*%
X42490000Y5433893D03*
D12*
%TO.P,"I²C4","2","Pin_2"*%
X43490000Y5433893D03*
%TO.P,"I²C4","3","Pin_3"*%
X44490000Y5433893D03*
%TO.P,"I²C4","4","Pin_4"*%
X45490000Y5433893D03*
%TO.P,"I²C4","MP"*%
X46790000Y1558893D03*
X41190000Y1558893D03*
%TD*%
D10*
%TO.C,"R46"*%
%TO.CFtp,"0603"*%
%TO.CVal,"4.7k/R0603"*%
%TO.CLbN,"Resistors"*%
%TO.CMnt,SMD*%
%TO.CRot,-90*%
X68100720Y8388280D03*
D13*
X68799219Y6790621D02*
X67402221Y6790621D01*
X67402221Y9985939D01*
X68799219Y9985939D01*
X68799219Y6790621D01*
D14*
%TO.P,"R46","1"*%
X68100720Y9236640D03*
D12*
%TO.P,"R46","2"*%
X68100720Y7539920D03*
%TD*%
D10*
%TO.C,"REF\u002A\u002A"*%
%TO.CFtp,"Molex_Mini-Fit_Jr_5569-04A2_2x02_P4.20mm_Horizontal"*%
%TO.CVal,"Molex_Mini-Fit_Jr_5569-04A2_2x02_P4.20mm_Horizontal"*%
%TO.CLbN,"Connector_Molex"*%
%TO.CMnt,TH*%
%TO.CRot,-90*%
X57165000Y50900000D03*
D13*
X71564999Y43500001D02*
X49315001Y43500001D01*
X49315001Y54099999D01*
X71564999Y54099999D01*
X71564999Y43500001D01*
D14*
%TO.P,"REF\u002A\u002A","1"*%
X57165000Y50900000D03*
D12*
%TO.P,"REF\u002A\u002A",*%
X64465000Y48800000D03*
%TO.P,"REF\u002A\u002A","2"*%
X57165000Y46700000D03*
%TO.P,"REF\u002A\u002A","3"*%
X51665000Y50900000D03*
%TO.P,"REF\u002A\u002A","4"*%
X51665000Y46700000D03*
%TD*%
D10*
%TO.C,"R4"*%
%TO.CFtp,"0603"*%
%TO.CVal,"5.1k/R0603"*%
%TO.CLbN,"Resistors"*%
%TO.CMnt,SMD*%
%TO.CRot,0*%
X58325000Y61350000D03*
D13*
X59922659Y60651501D02*
X56727341Y60651501D01*
X56727341Y62048499D01*
X59922659Y62048499D01*
X59922659Y60651501D01*
D14*
%TO.P,"R4","1"*%
X57476640Y61350000D03*
D12*
%TO.P,"R4","2"*%
X59173360Y61350000D03*
%TD*%
D10*
%TO.C,"U6"*%
%TO.CFtp,"TSSOP-24_4.4x7.8mm_P0.65mm"*%
%TO.CVal,"TCA9548APWR"*%
%TO.CLbN,"Package_SO"*%
%TO.CMnt,SMD*%
%TO.CRot,0*%
X35850000Y4315000D03*
D13*
X39699999Y165001D02*
X32000001Y165001D01*
X32000001Y8464999D01*
X39699999Y8464999D01*
X39699999Y165001D01*
D14*
%TO.P,"U6","1","A0"*%
X32987500Y7890000D03*
D12*
%TO.P,"U6","2","A1"*%
X32987500Y7240000D03*
%TO.P,"U6","3","~{RESET}"*%
X32987500Y6590000D03*
%TO.P,"U6","4","SD0"*%
X32987500Y5940000D03*
%TO.P,"U6","5","SC0"*%
X32987500Y5290000D03*
%TO.P,"U6","6","SD1"*%
X32987500Y4640000D03*
%TO.P,"U6","7","SC1"*%
X32987500Y3990000D03*
%TO.P,"U6","8","SD2"*%
X32987500Y3340000D03*
%TO.P,"U6","9","SC2"*%
X32987500Y2690000D03*
%TO.P,"U6","10","SD3"*%
X32987500Y2040000D03*
%TO.P,"U6","11","SC3"*%
X32987500Y1390000D03*
%TO.P,"U6","12","GND"*%
X32987500Y740000D03*
%TO.P,"U6","13","SD4"*%
X38712500Y740000D03*
%TO.P,"U6","14","SC4"*%
X38712500Y1390000D03*
%TO.P,"U6","15","SD5"*%
X38712500Y2040000D03*
%TO.P,"U6","16","SC5"*%
X38712500Y2690000D03*
%TO.P,"U6","17","SD6"*%
X38712500Y3340000D03*
%TO.P,"U6","18","SC6"*%
X38712500Y3990000D03*
%TO.P,"U6","19","SD7"*%
X38712500Y4640000D03*
%TO.P,"U6","20","SC7"*%
X38712500Y5290000D03*
%TO.P,"U6","21","A2"*%
X38712500Y5940000D03*
%TO.P,"U6","22","SCL"*%
X38712500Y6590000D03*
%TO.P,"U6","23","SDA"*%
X38712500Y7240000D03*
%TO.P,"U6","24","VCC"*%
X38712500Y7890000D03*
%TD*%
D10*
%TO.C,"C29"*%
%TO.CFtp,"0603"*%
%TO.CVal,"1uF/6.3V/20\u0025/X5R/C0603"*%
%TO.CLbN,"Capacitors"*%
%TO.CMnt,SMD*%
%TO.CRot,0*%
X10155840Y7590000D03*
D13*
X11753499Y6891501D02*
X8558181Y6891501D01*
X8558181Y8288499D01*
X11753499Y8288499D01*
X11753499Y6891501D01*
D14*
%TO.P,"C29","1"*%
X9307480Y7590000D03*
D12*
%TO.P,"C29","2"*%
X11004200Y7590000D03*
%TD*%
D10*
%TO.C,"R48"*%
%TO.CFtp,"0603"*%
%TO.CVal,"4.7k/R0603"*%
%TO.CLbN,"Resistors"*%
%TO.CMnt,SMD*%
%TO.CRot,-90*%
X13905000Y8390000D03*
D13*
X14603499Y6792341D02*
X13206501Y6792341D01*
X13206501Y9987659D01*
X14603499Y9987659D01*
X14603499Y6792341D01*
D14*
%TO.P,"R48","1"*%
X13905000Y9238360D03*
D12*
%TO.P,"R48","2"*%
X13905000Y7541640D03*
%TD*%
D10*
%TO.C,"R27"*%
%TO.CFtp,"0603"*%
%TO.CVal,"10k/R0603"*%
%TO.CLbN,"Resistors"*%
%TO.CMnt,SMD*%
%TO.CRot,180*%
X42100000Y8980000D03*
D13*
X43697659Y8281501D02*
X40502341Y8281501D01*
X40502341Y9678499D01*
X43697659Y9678499D01*
X43697659Y8281501D01*
D14*
%TO.P,"R27","1"*%
X42948360Y8980000D03*
D12*
%TO.P,"R27","2"*%
X41251640Y8980000D03*
%TD*%
D10*
%TO.C,"R39"*%
%TO.CFtp,"0603"*%
%TO.CVal,"4.7k/R0603"*%
%TO.CLbN,"Resistors"*%
%TO.CMnt,SMD*%
%TO.CRot,-90*%
X45965000Y8383893D03*
D13*
X46663499Y6786234D02*
X45266501Y6786234D01*
X45266501Y9981552D01*
X46663499Y9981552D01*
X46663499Y6786234D01*
D14*
%TO.P,"R39","1"*%
X45965000Y9232253D03*
D12*
%TO.P,"R39","2"*%
X45965000Y7535533D03*
%TD*%
D10*
%TO.C,"R31"*%
%TO.CFtp,"0603"*%
%TO.CVal,"4.7k/R0603"*%
%TO.CLbN,"Resistors"*%
%TO.CMnt,SMD*%
%TO.CRot,-90*%
X20300000Y8387649D03*
D13*
X20998499Y6789990D02*
X19601501Y6789990D01*
X19601501Y9985308D01*
X20998499Y9985308D01*
X20998499Y6789990D01*
D14*
%TO.P,"R31","1"*%
X20300000Y9236009D03*
D12*
%TO.P,"R31","2"*%
X20300000Y7539289D03*
%TD*%
D10*
%TO.C,"C30"*%
%TO.CFtp,"0603"*%
%TO.CVal,"1uF/6.3V/20\u0025/X5R/C0603"*%
%TO.CLbN,"Capacitors"*%
%TO.CMnt,SMD*%
%TO.CRot,0*%
X25895840Y7586721D03*
D13*
X27493499Y6888222D02*
X24298181Y6888222D01*
X24298181Y8285220D01*
X27493499Y8285220D01*
X27493499Y6888222D01*
D14*
%TO.P,"C30","1"*%
X25047480Y7586721D03*
D12*
%TO.P,"C30","2"*%
X26744200Y7586721D03*
%TD*%
D10*
%TO.C,"I²C7"*%
%TO.CFtp,"JST_SH_SM04B-SRSS-TB_1x04-1MP_P1.00mm_Horizontal"*%
%TO.CVal,"Conn_01x04_P1.00mm_Stemma qt/Qwiic"*%
%TO.CLbN,"Connector_JST"*%
%TO.CMnt,SMD*%
%TO.CRot,0*%
X67610000Y3435000D03*
D13*
X71509999Y155001D02*
X63710001Y155001D01*
X63710001Y6714999D01*
X71509999Y6714999D01*
X71509999Y155001D01*
D14*
%TO.P,"I²C7","1","Pin_1"*%
X66110000Y5435000D03*
D12*
%TO.P,"I²C7","2","Pin_2"*%
X67110000Y5435000D03*
%TO.P,"I²C7","3","Pin_3"*%
X68110000Y5435000D03*
%TO.P,"I²C7","4","Pin_4"*%
X69110000Y5435000D03*
%TO.P,"I²C7","MP"*%
X70410000Y1560000D03*
X64810000Y1560000D03*
%TD*%
D10*
%TO.C,"C27"*%
%TO.CFtp,"0603"*%
%TO.CVal,"1uF/6.3V/20\u0025/X5R/C0603"*%
%TO.CLbN,"Capacitors"*%
%TO.CMnt,SMD*%
%TO.CRot,0*%
X42215840Y7583893D03*
D13*
X43813499Y6885394D02*
X40618181Y6885394D01*
X40618181Y8282392D01*
X43813499Y8282392D01*
X43813499Y6885394D01*
D14*
%TO.P,"C27","1"*%
X41367480Y7583893D03*
D12*
%TO.P,"C27","2"*%
X43064200Y7583893D03*
%TD*%
D10*
%TO.C,"U1"*%
%TO.CFtp,"USB2.0_TYPE-C(A40-00119-A52-12)"*%
%TO.CVal,"USB-C-16P-F(A40-00119-A52-12)"*%
%TO.CLbN,"Connector_USB"*%
%TO.CMnt,SMD*%
%TO.CRot,90*%
X54975000Y68450000D03*
D13*
X59974999Y63950001D02*
X49975001Y63950001D01*
X49975001Y72349999D01*
X59974999Y72349999D01*
X59974999Y63950001D01*
D14*
%TO.P,"U1","A1","GND"*%
X58300000Y64518000D03*
D12*
%TO.P,"U1",*%
X57865000Y65920000D03*
X52085000Y65920000D03*
%TO.P,"U1","0","SHELL"*%
X50047400Y69600000D03*
X59295000Y65420000D03*
X59902600Y65420000D03*
X59295000Y69600000D03*
X50655000Y65420000D03*
X59902600Y69600000D03*
X50655000Y69600000D03*
X50047400Y65420000D03*
%TO.P,"U1","A4","VBUS"*%
X57500000Y64518000D03*
%TO.P,"U1","A5","CC1"*%
X56225000Y64518000D03*
%TO.P,"U1","A6","DP1"*%
X55225000Y64518000D03*
%TO.P,"U1","A7","DN1"*%
X54725000Y64518000D03*
%TO.P,"U1","A8","SBU1"*%
X53725000Y64518000D03*
%TO.P,"U1","A9","VBUS"*%
X52450000Y64518000D03*
%TO.P,"U1","A12","GND"*%
X51650000Y64518000D03*
%TO.P,"U1","B1","GND"*%
X51900000Y64518000D03*
%TO.P,"U1","B4","VBUS"*%
X52700000Y64518000D03*
%TO.P,"U1","B5","CC2"*%
X53225000Y64518000D03*
%TO.P,"U1","B6","DP2"*%
X54225000Y64518000D03*
%TO.P,"U1","B7","DN2"*%
X55725000Y64518000D03*
%TO.P,"U1","B8","SBU2"*%
X56725000Y64518000D03*
%TO.P,"U1","B9","VBUS"*%
X57250000Y64518000D03*
%TO.P,"U1","B12","GND"*%
X58050000Y64518000D03*
%TD*%
D10*
%TO.C,"R47"*%
%TO.CFtp,"0603"*%
%TO.CVal,"4.7k/R0603"*%
%TO.CLbN,"Resistors"*%
%TO.CMnt,SMD*%
%TO.CRot,-90*%
X69575720Y8385000D03*
D13*
X70274219Y6787341D02*
X68877221Y6787341D01*
X68877221Y9982659D01*
X70274219Y9982659D01*
X70274219Y6787341D01*
D14*
%TO.P,"R47","1"*%
X69575720Y9233360D03*
D12*
%TO.P,"R47","2"*%
X69575720Y7536640D03*
%TD*%
D10*
%TO.C,"R43"*%
%TO.CFtp,"0603"*%
%TO.CVal,"4.7k/R0603"*%
%TO.CLbN,"Resistors"*%
%TO.CMnt,SMD*%
%TO.CRot,-90*%
X12430000Y8388360D03*
D13*
X13128499Y6790701D02*
X11731501Y6790701D01*
X11731501Y9986019D01*
X13128499Y9986019D01*
X13128499Y6790701D01*
D14*
%TO.P,"R43","1"*%
X12430000Y9236720D03*
D12*
%TO.P,"R43","2"*%
X12430000Y7540000D03*
%TD*%
D10*
%TO.C,"C11"*%
%TO.CFtp,"1210"*%
%TO.CVal,"330uF/6.3V/20\u0025/X5R/C1210"*%
%TO.CLbN,"Capacitors"*%
%TO.CMnt,SMD*%
%TO.CRot,90*%
X46475000Y17727600D03*
D13*
X47922799Y15139341D02*
X45027201Y15139341D01*
X45027201Y20315859D01*
X47922799Y20315859D01*
X47922799Y15139341D01*
D14*
%TO.P,"C11","1"*%
X46475000Y15975000D03*
D12*
%TO.P,"C11","2"*%
X46475000Y19480200D03*
%TD*%
D10*
%TO.C,""*%
%TO.CFtp,""*%
%TO.CVal,""*%
%TO.CLbN,""*%
%TO.CMnt,Other*%
%TO.CRot,0*%
X37715000Y52225000D03*
D11*
X37010000Y52930000D02*
X37010000Y51520000D01*
X38420000Y51520000D01*
X38420000Y52930000D01*
X37010000Y52930000D01*
D12*
%TO.P,"",*%
X37715000Y52225000D03*
%TD*%
D10*
%TO.C,"R26"*%
%TO.CFtp,"0603"*%
%TO.CVal,"4.7k/R0603"*%
%TO.CLbN,"Resistors"*%
%TO.CMnt,SMD*%
%TO.CRot,0*%
X32070000Y9220000D03*
D13*
X33667659Y8521501D02*
X30472341Y8521501D01*
X30472341Y9918499D01*
X33667659Y9918499D01*
X33667659Y8521501D01*
D14*
%TO.P,"R26","1"*%
X31221640Y9220000D03*
D12*
%TO.P,"R26","2"*%
X32918360Y9220000D03*
%TD*%
D10*
%TO.C,"R40"*%
%TO.CFtp,"0603"*%
%TO.CVal,"4.7k/R0603"*%
%TO.CLbN,"Resistors"*%
%TO.CMnt,SMD*%
%TO.CRot,-90*%
X61705000Y8385112D03*
D13*
X62403499Y6787453D02*
X61006501Y6787453D01*
X61006501Y9982771D01*
X62403499Y9982771D01*
X62403499Y6787453D01*
D14*
%TO.P,"R40","1"*%
X61705000Y9233472D03*
D12*
%TO.P,"R40","2"*%
X61705000Y7536752D03*
%TD*%
D10*
%TO.C,"R32"*%
%TO.CFtp,"0603"*%
%TO.CVal,"4.7k/R0603"*%
%TO.CLbN,"Resistors"*%
%TO.CMnt,SMD*%
%TO.CRot,-90*%
X44490000Y8382253D03*
D13*
X45188499Y6784594D02*
X43791501Y6784594D01*
X43791501Y9979912D01*
X45188499Y9979912D01*
X45188499Y6784594D01*
D14*
%TO.P,"R32","1"*%
X44490000Y9230613D03*
D12*
%TO.P,"R32","2"*%
X44490000Y7533893D03*
%TD*%
D10*
%TO.C,"I²C2"*%
%TO.CFtp,"JST_SH_SM04B-SRSS-TB_1x04-1MP_P1.00mm_Horizontal"*%
%TO.CVal,"Conn_01x04_P1.00mm_Stemma qt/Qwiic"*%
%TO.CLbN,"Connector_JST"*%
%TO.CMnt,SMD*%
%TO.CRot,0*%
X19800000Y3437649D03*
D13*
X23699999Y157650D02*
X15900001Y157650D01*
X15900001Y6717648D01*
X23699999Y6717648D01*
X23699999Y157650D01*
D14*
%TO.P,"I²C2","1","Pin_1"*%
X18300000Y5437649D03*
D12*
%TO.P,"I²C2","2","Pin_2"*%
X19300000Y5437649D03*
%TO.P,"I²C2","3","Pin_3"*%
X20300000Y5437649D03*
%TO.P,"I²C2","4","Pin_4"*%
X21300000Y5437649D03*
%TO.P,"I²C2","MP"*%
X22600000Y1562649D03*
X17000000Y1562649D03*
%TD*%
D10*
%TO.C,"C1"*%
%TO.CFtp,"CP_Elec_10x10.5"*%
%TO.CVal,"220uF/50V/10\u002A10mm"*%
%TO.CLbN,"Capacitor_SMD"*%
%TO.CMnt,SMD*%
%TO.CRot,90*%
X65810000Y65820000D03*
D13*
X67309999Y71320000D02*
X67310000Y71319999D01*
X71309999Y71319999D01*
X71309999Y61470000D01*
X70160000Y60320001D01*
X67310000Y60320001D01*
X67309999Y60320000D01*
X67309999Y59170001D01*
X64310001Y59170001D01*
X64310001Y60320000D01*
X64310000Y60320001D01*
X61460000Y60320001D01*
X60310001Y61470000D01*
X60310001Y71319999D01*
X64310000Y71319999D01*
X64310001Y71320000D01*
X64310001Y72469999D01*
X67309999Y72469999D01*
X67309999Y71320000D01*
D14*
%TO.P,"C1","1"*%
X65810000Y61620000D03*
D12*
%TO.P,"C1","2"*%
X65810000Y70020000D03*
%TD*%
D10*
%TO.C,"J1"*%
%TO.CFtp,"Molex_Mini-Fit_Jr_5569-04A1_2x02_P4.20mm_Horizontal"*%
%TO.CVal,"Conn_02x02_P4.20mm_Molex_Horizontal"*%
%TO.CLbN,"Connector_Molex"*%
%TO.CMnt,TH*%
%TO.CRot,-90*%
X57165000Y50900000D03*
D13*
X64964999Y54100000D02*
X64965000Y54099999D01*
X71564999Y54099999D01*
X71564999Y43500001D01*
X64965000Y43500001D01*
X64964999Y43500000D01*
X64964999Y38500001D01*
X57765001Y38500001D01*
X57765001Y44850000D01*
X57765000Y44850001D01*
X49315001Y44850001D01*
X49315001Y52749999D01*
X57765000Y52749999D01*
X57765001Y52750000D01*
X57765001Y59099999D01*
X64964999Y59099999D01*
X64964999Y54100000D01*
D14*
%TO.P,"J1","1","Pin_1"*%
X57165000Y50900000D03*
D12*
%TO.P,"J1",*%
X61365000Y42200000D03*
X61365000Y55400000D03*
%TO.P,"J1","2","Pin_2"*%
X57165000Y46700000D03*
%TO.P,"J1","3","Pin_3"*%
X51665000Y50900000D03*
%TO.P,"J1","4","Pin_4"*%
X51665000Y46700000D03*
%TD*%
D10*
%TO.C,"C21"*%
%TO.CFtp,"1210"*%
%TO.CVal,"330uF/6.3V/20\u0025/X5R/C1210"*%
%TO.CLbN,"Capacitors"*%
%TO.CMnt,SMD*%
%TO.CRot,90*%
X43425000Y17727600D03*
D13*
X44872799Y15139341D02*
X41977201Y15139341D01*
X41977201Y20315859D01*
X44872799Y20315859D01*
X44872799Y15139341D01*
D14*
%TO.P,"C21","1"*%
X43425000Y15975000D03*
D12*
%TO.P,"C21","2"*%
X43425000Y19480200D03*
%TD*%
M02*
