%TF.GenerationSoftware,KiCad,Pcbnew,(7.0.0)*%
%TF.CreationDate,2023-03-12T03:28:47+03:00*%
%TF.ProjectId,ESP32-DEVKIT-L,45535033-322d-4444-9556-4b49542d4c2e,1*%
%TF.SameCoordinates,PX4260300PY8558f68*%
%TF.FileFunction,Soldermask,Top*%
%TF.FilePolarity,Negative*%
%FSLAX46Y46*%
G04 Gerber Fmt 4.6, Leading zero omitted, Abs format (unit mm)*
G04 Created by KiCad (PCBNEW (7.0.0)) date 2023-03-12 03:28:47*
%MOMM*%
%LPD*%
G01*
G04 APERTURE LIST*
G04 Aperture macros list*
%AMRoundRect*
0 Rectangle with rounded corners*
0 $1 Rounding radius*
0 $2 $3 $4 $5 $6 $7 $8 $9 X,Y pos of 4 corners*
0 Add a 4 corners polygon primitive as box body*
4,1,4,$2,$3,$4,$5,$6,$7,$8,$9,$2,$3,0*
0 Add four circle primitives for the rounded corners*
1,1,$1+$1,$2,$3*
1,1,$1+$1,$4,$5*
1,1,$1+$1,$6,$7*
1,1,$1+$1,$8,$9*
0 Add four rect primitives between the rounded corners*
20,1,$1+$1,$2,$3,$4,$5,0*
20,1,$1+$1,$4,$5,$6,$7,0*
20,1,$1+$1,$6,$7,$8,$9,0*
20,1,$1+$1,$8,$9,$2,$3,0*%
G04 Aperture macros list end*
%ADD10C,1.200000*%
%ADD11C,6.300000*%
%ADD12RoundRect,0.101600X0.499110X-0.549910X0.499110X0.549910X-0.499110X0.549910X-0.499110X-0.549910X0*%
%ADD13RoundRect,0.101600X-0.398780X-0.599440X0.398780X-0.599440X0.398780X0.599440X-0.398780X0.599440X0*%
%ADD14RoundRect,0.101600X-0.499110X0.549910X-0.499110X-0.549910X0.499110X-0.549910X0.499110X0.549910X0*%
%ADD15RoundRect,0.101600X0.549910X0.499110X-0.549910X0.499110X-0.549910X-0.499110X0.549910X-0.499110X0*%
%ADD16RoundRect,0.050800X0.635000X-0.762000X0.635000X0.762000X-0.635000X0.762000X-0.635000X-0.762000X0*%
%ADD17RoundRect,0.050800X0.762000X0.635000X-0.762000X0.635000X-0.762000X-0.635000X0.762000X-0.635000X0*%
%ADD18RoundRect,0.050800X-0.400000X-0.400000X0.400000X-0.400000X0.400000X0.400000X-0.400000X0.400000X0*%
%ADD19RoundRect,0.101600X-0.549910X-0.499110X0.549910X-0.499110X0.549910X0.499110X-0.549910X0.499110X0*%
%ADD20RoundRect,0.050800X-0.317500X-0.508000X0.317500X-0.508000X0.317500X0.508000X-0.317500X0.508000X0*%
%ADD21RoundRect,0.050800X-0.190500X-0.508000X0.190500X-0.508000X0.190500X0.508000X-0.190500X0.508000X0*%
%ADD22RoundRect,0.050800X0.317500X0.508000X-0.317500X0.508000X-0.317500X-0.508000X0.317500X-0.508000X0*%
%ADD23RoundRect,0.050800X0.190500X0.508000X-0.190500X0.508000X-0.190500X-0.508000X0.190500X-0.508000X0*%
%ADD24RoundRect,0.050800X-1.000000X-0.450000X1.000000X-0.450000X1.000000X0.450000X-1.000000X0.450000X0*%
%ADD25RoundRect,0.050800X-0.450000X-1.000000X0.450000X-1.000000X0.450000X1.000000X-0.450000X1.000000X0*%
%ADD26C,2.101600*%
%ADD27RoundRect,0.050800X-2.500000X-2.500000X2.500000X-2.500000X2.500000X2.500000X-2.500000X2.500000X0*%
%ADD28RoundRect,0.050800X-0.400000X-0.125000X0.400000X-0.125000X0.400000X0.125000X-0.400000X0.125000X0*%
%ADD29RoundRect,0.050800X0.125000X-0.400000X0.125000X0.400000X-0.125000X0.400000X-0.125000X-0.400000X0*%
%ADD30RoundRect,0.050800X0.400000X0.125000X-0.400000X0.125000X-0.400000X-0.125000X0.400000X-0.125000X0*%
%ADD31RoundRect,0.050800X-0.125000X0.400000X-0.125000X-0.400000X0.125000X-0.400000X0.125000X0.400000X0*%
%ADD32R,0.400000X0.400000*%
%ADD33R,1.422400X1.422400*%
%ADD34RoundRect,0.050800X-1.800000X1.800000X-1.800000X-1.800000X1.800000X-1.800000X1.800000X1.800000X0*%
%ADD35RoundRect,0.050800X-0.750000X0.400000X-0.750000X-0.400000X0.750000X-0.400000X0.750000X0.400000X0*%
%ADD36C,0.400000*%
%ADD37RoundRect,0.050800X-0.750000X1.550000X-0.750000X-1.550000X0.750000X-1.550000X0.750000X1.550000X0*%
%ADD38RoundRect,0.050800X-0.762000X0.508000X-0.762000X-0.508000X0.762000X-0.508000X0.762000X0.508000X0*%
%ADD39C,3.200000*%
%ADD40C,1.410000*%
%ADD41C,1.650000*%
%ADD42C,2.700000*%
%ADD43RoundRect,0.101600X-0.899160X0.798830X-0.899160X-0.798830X0.899160X-0.798830X0.899160X0.798830X0*%
%ADD44RoundRect,0.101600X0.899160X-0.798830X0.899160X0.798830X-0.899160X0.798830X-0.899160X-0.798830X0*%
%ADD45RoundRect,0.050800X1.000000X0.850000X-1.000000X0.850000X-1.000000X-0.850000X1.000000X-0.850000X0*%
%ADD46RoundRect,0.050800X-0.500000X0.700000X-0.500000X-0.700000X0.500000X-0.700000X0.500000X0.700000X0*%
%ADD47RoundRect,0.050800X-2.413000X-0.550000X2.413000X-0.550000X2.413000X0.550000X-2.413000X0.550000X0*%
%ADD48RoundRect,0.050800X-0.700000X-0.500000X0.700000X-0.500000X0.700000X0.500000X-0.700000X0.500000X0*%
%ADD49RoundRect,0.050800X0.635000X-0.162500X0.635000X0.162500X-0.635000X0.162500X-0.635000X-0.162500X0*%
%ADD50RoundRect,0.050800X-0.889000X-0.889000X0.889000X-0.889000X0.889000X0.889000X-0.889000X0.889000X0*%
%ADD51C,1.879600*%
%ADD52RoundRect,0.050800X0.889000X1.143000X-0.889000X1.143000X-0.889000X-1.143000X0.889000X-1.143000X0*%
%ADD53RoundRect,0.050800X0.500000X-0.700000X0.500000X0.700000X-0.500000X0.700000X-0.500000X-0.700000X0*%
%ADD54RoundRect,0.050800X-0.762000X-0.635000X0.762000X-0.635000X0.762000X0.635000X-0.762000X0.635000X0*%
%ADD55RoundRect,0.050800X0.700000X0.500000X-0.700000X0.500000X-0.700000X-0.500000X0.700000X-0.500000X0*%
%ADD56RoundRect,0.050800X-0.700000X0.500000X-0.700000X-0.500000X0.700000X-0.500000X0.700000X0.500000X0*%
%ADD57RoundRect,0.050800X0.700000X-0.500000X0.700000X0.500000X-0.700000X0.500000X-0.700000X-0.500000X0*%
%ADD58RoundRect,0.150000X-0.150000X-0.625000X0.150000X-0.625000X0.150000X0.625000X-0.150000X0.625000X0*%
%ADD59RoundRect,0.250000X-0.350000X-0.650000X0.350000X-0.650000X0.350000X0.650000X-0.350000X0.650000X0*%
%ADD60RoundRect,0.101600X0.635000X1.029970X-0.635000X1.029970X-0.635000X-1.029970X0.635000X-1.029970X0*%
%ADD61R,2.300000X1.500000*%
%ADD62O,2.300000X1.500000*%
%ADD63R,2.500000X1.700000*%
%ADD64O,2.500000X1.700000*%
%ADD65C,3.000000*%
%ADD66RoundRect,0.250001X-1.599999X1.099999X-1.599999X-1.099999X1.599999X-1.099999X1.599999X1.099999X0*%
%ADD67O,3.700000X2.700000*%
%ADD68RoundRect,0.100000X-0.637500X-0.100000X0.637500X-0.100000X0.637500X0.100000X-0.637500X0.100000X0*%
%ADD69C,0.701600*%
%ADD70RoundRect,0.050800X0.550000X1.100000X-0.550000X1.100000X-0.550000X-1.100000X0.550000X-1.100000X0*%
%ADD71O,1.301600X2.301600*%
%ADD72RoundRect,0.050800X0.550000X1.000000X-0.550000X1.000000X-0.550000X-1.000000X0.550000X-1.000000X0*%
%ADD73O,1.401600X2.101600*%
%ADD74RoundRect,0.050800X0.150000X0.575000X-0.150000X0.575000X-0.150000X-0.575000X0.150000X-0.575000X0*%
%ADD75RoundRect,0.050800X0.125000X0.575000X-0.125000X0.575000X-0.125000X-0.575000X0.125000X-0.575000X0*%
%ADD76C,1.101600*%
%ADD77RoundRect,0.101600X1.029970X-0.635000X1.029970X0.635000X-1.029970X0.635000X-1.029970X-0.635000X0*%
%ADD78RoundRect,0.250000X1.000000X-1.950000X1.000000X1.950000X-1.000000X1.950000X-1.000000X-1.950000X0*%
%ADD79C,0.900000*%
%ADD80C,0.700000*%
%ADD81C,0.750000*%
%TA.AperFunction,Profile*%
%ADD82C,0.254000*%
%TD*%
G04 APERTURE END LIST*
D10*
X1139000Y17524000D03*
X1901000Y19175000D03*
X1901000Y15746000D03*
X3552000Y19937000D03*
D11*
X3552000Y17524000D03*
D10*
X3552000Y15111000D03*
X5203000Y19175000D03*
X5203000Y15873000D03*
X5965000Y17524000D03*
D12*
X36064000Y34963640D03*
X36064000Y36660360D03*
X34540000Y34963640D03*
X34540000Y36660360D03*
D13*
X15733840Y27176000D03*
X17532160Y27176000D03*
D14*
X36826000Y48979360D03*
X36826000Y47282640D03*
X39874000Y36787360D03*
X39874000Y35090640D03*
X28190000Y36660360D03*
X28190000Y34963640D03*
X35175000Y48979360D03*
X35175000Y47282640D03*
D15*
X24847360Y44956000D03*
X23150640Y44956000D03*
X24847360Y40003000D03*
X23150640Y40003000D03*
X24847360Y41527000D03*
X23150640Y41527000D03*
X37166360Y41146000D03*
X35469640Y41146000D03*
D16*
X37969000Y35177000D03*
X37969000Y37209000D03*
D17*
X17649000Y25271000D03*
X15617000Y25271000D03*
D18*
X46461500Y54455000D03*
X44937500Y54455000D03*
D19*
X11847640Y44067000D03*
X13544360Y44067000D03*
D12*
X22094000Y66586640D03*
X22094000Y68283360D03*
D14*
X42033000Y63711360D03*
X42033000Y62014640D03*
X28952000Y48979360D03*
X28952000Y47282640D03*
X26666000Y48979360D03*
X26666000Y47282640D03*
X32762000Y48979360D03*
X32762000Y47282640D03*
X30476000Y48979360D03*
X30476000Y47282640D03*
D19*
X31278640Y15301500D03*
X32975360Y15301500D03*
X35469640Y39625000D03*
X37166360Y39625000D03*
D15*
X24847360Y46734000D03*
X23150640Y46734000D03*
D19*
X39406640Y20826000D03*
X41103360Y20826000D03*
D15*
X26117360Y22858000D03*
X24420640Y22858000D03*
D20*
X23745000Y35050000D03*
X23745000Y36574000D03*
D21*
X24634000Y35050000D03*
X24634000Y36574000D03*
X25396000Y35050000D03*
X25396000Y36574000D03*
D20*
X26285000Y35050000D03*
X26285000Y36574000D03*
D22*
X32635000Y36574000D03*
X32635000Y35050000D03*
D23*
X31746000Y36574000D03*
X31746000Y35050000D03*
X30984000Y36574000D03*
X30984000Y35050000D03*
D22*
X30095000Y36574000D03*
X30095000Y35050000D03*
D24*
X1910000Y65252000D03*
X1910000Y63982000D03*
X1910000Y62712000D03*
X1910000Y61442000D03*
X1910000Y60172000D03*
X1910000Y58902000D03*
X1910000Y57632000D03*
X1910000Y56362000D03*
X1910000Y55092000D03*
X1910000Y53822000D03*
X1910000Y52552000D03*
X1910000Y51282000D03*
X1910000Y50012000D03*
X1910000Y48742000D03*
D25*
X4710000Y47742000D03*
X5980000Y47742000D03*
X7250000Y47742000D03*
X8520000Y47742000D03*
X9790000Y47742000D03*
X11060000Y47742000D03*
X12330000Y47742000D03*
X13600000Y47742000D03*
X14870000Y47742000D03*
X16140000Y47742000D03*
D24*
X18910000Y48742000D03*
X18910000Y50012000D03*
X18910000Y51282000D03*
X18910000Y52552000D03*
X18910000Y53822000D03*
X18910000Y55092000D03*
X18910000Y56362000D03*
X18910000Y57632000D03*
X18910000Y58902000D03*
X18910000Y60172000D03*
X18910000Y61442000D03*
X18910000Y62712000D03*
X18910000Y63982000D03*
X18910000Y65252000D03*
D26*
X9410000Y57742000D03*
D27*
X9410000Y57742000D03*
D28*
X27899000Y43531000D03*
X27899000Y43031000D03*
X27899000Y42531000D03*
X27899000Y42031000D03*
X27899000Y41531000D03*
X27899000Y41031000D03*
X27899000Y40531000D03*
X27899000Y40031000D03*
D29*
X28599000Y39331000D03*
X29099000Y39331000D03*
X29599000Y39331000D03*
X30099000Y39331000D03*
X30599000Y39331000D03*
X31099000Y39331000D03*
X31599000Y39331000D03*
X32099000Y39331000D03*
D30*
X32799000Y40031000D03*
X32799000Y40531000D03*
X32799000Y41031000D03*
X32799000Y41531000D03*
X32799000Y42031000D03*
X32799000Y42531000D03*
X32799000Y43031000D03*
X32799000Y43531000D03*
D31*
X32099000Y44231000D03*
X31599000Y44231000D03*
X31099000Y44231000D03*
X30599000Y44231000D03*
X30099000Y44231000D03*
X29599000Y44231000D03*
X29099000Y44231000D03*
X28599000Y44231000D03*
D32*
X30848999Y43080999D03*
X29848999Y43080999D03*
X31648999Y42280999D03*
X29048999Y42280999D03*
D33*
X30348999Y41780999D03*
D34*
X30349000Y41781000D03*
D32*
X31648999Y41280999D03*
X29048999Y41280999D03*
X30848999Y40480999D03*
X29848999Y40480999D03*
D35*
X2727000Y24850000D03*
X2727000Y25950000D03*
X2727000Y27050000D03*
X2727000Y28150000D03*
X2727000Y29250000D03*
X2727000Y30350000D03*
X2727000Y31450000D03*
X2727000Y32550000D03*
D36*
X1007000Y21880000D03*
X12807000Y22970000D03*
X12807000Y34240000D03*
X1007000Y34240000D03*
D37*
X11977000Y31610000D03*
X11977000Y25550000D03*
D15*
X17481360Y28954000D03*
X15784640Y28954000D03*
D38*
X9521000Y42670000D03*
X1647000Y42670000D03*
X9521000Y36828000D03*
X1647000Y36828000D03*
D39*
X37715000Y61466000D03*
X26285000Y61466000D03*
D40*
X36455000Y54766000D03*
X35185000Y52226000D03*
X33915000Y54766000D03*
X32645000Y52226000D03*
X31375000Y54766000D03*
X30105000Y52226000D03*
X28835000Y54766000D03*
X27565000Y52226000D03*
D41*
X27930000Y66214500D03*
X38610000Y66214500D03*
D42*
X39800000Y58416000D03*
X24200000Y58416000D03*
D41*
X25390000Y66214500D03*
X36070000Y66214500D03*
D43*
X22475000Y56007540D03*
X22475000Y53208460D03*
D44*
X22475000Y60828460D03*
X22475000Y63627540D03*
D15*
X46547860Y52677000D03*
X44851140Y52677000D03*
X26117360Y25525000D03*
X24420640Y25525000D03*
D19*
X39914640Y25525000D03*
X41611360Y25525000D03*
D14*
X26950000Y17798360D03*
X26950000Y16101640D03*
D19*
X39406640Y22350000D03*
X41103360Y22350000D03*
D45*
X48470000Y33145000D03*
X43470000Y33145000D03*
D46*
X46798040Y35720560D03*
X48700500Y35720560D03*
X47745460Y37930360D03*
D47*
X28317000Y27430000D03*
X37715000Y27430000D03*
D48*
X22439440Y22670040D03*
X22439440Y24572500D03*
X20229640Y23617460D03*
D15*
X45040360Y35939000D03*
X43343640Y35939000D03*
D12*
X22310000Y15883280D03*
X22310000Y17580000D03*
D15*
X13544360Y42543000D03*
X11847640Y42543000D03*
D19*
X11847640Y41019000D03*
X13544360Y41019000D03*
D49*
X35746500Y17139000D03*
X35746500Y17789000D03*
X35746500Y18439000D03*
X35746500Y19089000D03*
X35746500Y19739000D03*
X35746500Y20389000D03*
X35746500Y21039000D03*
X35746500Y21689000D03*
X35746500Y22339000D03*
X35746500Y22989000D03*
X28507500Y22989000D03*
X28507500Y22339000D03*
X28507500Y21689000D03*
X28507500Y21039000D03*
X28507500Y20389000D03*
X28507500Y19739000D03*
X28507500Y19089000D03*
X28507500Y18439000D03*
X28507500Y17789000D03*
X28507500Y17139000D03*
D10*
X44319000Y68705000D03*
X45081000Y70356000D03*
X45081000Y66927000D03*
X46732000Y71118000D03*
D11*
X46732000Y68705000D03*
D10*
X46732000Y66292000D03*
X48383000Y70356000D03*
X48383000Y67054000D03*
X49145000Y68705000D03*
D50*
X1266000Y11809000D03*
D51*
X3806000Y11809000D03*
X6346000Y11809000D03*
X8886000Y11809000D03*
X11426000Y11809000D03*
X13966000Y11809000D03*
X16506000Y11809000D03*
X19046000Y11809000D03*
X21586000Y11809000D03*
X24126000Y11809000D03*
X26666000Y11809000D03*
X29206000Y11809000D03*
X31746000Y11809000D03*
X34286000Y11809000D03*
X36826000Y11809000D03*
X39366000Y11809000D03*
X41906000Y11809000D03*
X44446000Y11809000D03*
X46986000Y11809000D03*
X49526000Y11809000D03*
D18*
X46461500Y58900000D03*
X44937500Y58900000D03*
D19*
X44851140Y57122000D03*
X46547860Y57122000D03*
D15*
X12348360Y19940000D03*
X10651640Y19940000D03*
X17735360Y35177000D03*
X16038640Y35177000D03*
D52*
X48401000Y29843000D03*
X44047000Y29843000D03*
D53*
X21011960Y37427440D03*
X19109500Y37427440D03*
X20064540Y35217640D03*
D15*
X21037360Y42289000D03*
X19340640Y42289000D03*
D54*
X15490000Y37844000D03*
X17522000Y37844000D03*
D19*
X19340639Y39241000D03*
X21037359Y39241000D03*
D55*
X17684560Y45651960D03*
X17684560Y43749500D03*
X19894360Y44704540D03*
D19*
X19340639Y40765000D03*
X21037359Y40765000D03*
D15*
X9099360Y21461000D03*
X7402640Y21461000D03*
X17735360Y33653000D03*
X16038640Y33653000D03*
D56*
X15533000Y41207000D03*
X15533000Y39307000D03*
X17733000Y40257000D03*
D57*
X37842000Y15116000D03*
X37842000Y18916000D03*
D56*
X39874000Y18916000D03*
X39874000Y15116000D03*
D19*
X16038640Y31875000D03*
X17735360Y31875000D03*
D15*
X12348360Y21464000D03*
X10651640Y21464000D03*
X9099360Y19937000D03*
X7402640Y19937000D03*
X19386360Y21715000D03*
X17689640Y21715000D03*
X17862360Y23366000D03*
X16165640Y23366000D03*
D48*
X22312440Y19114040D03*
X22312440Y21016500D03*
X20102640Y20061460D03*
D15*
X18497360Y20064000D03*
X16800640Y20064000D03*
X13544360Y39241000D03*
X11847640Y39241000D03*
X13544360Y35939000D03*
X11847640Y35939000D03*
D14*
X28170000Y9235081D03*
X28170000Y7538361D03*
D15*
X39473360Y9219180D03*
X37776640Y9219180D03*
D19*
X17091640Y7480000D03*
X18788360Y7480000D03*
D58*
X10430000Y5440000D03*
X11430000Y5440000D03*
X12430000Y5440000D03*
X13430000Y5440000D03*
D59*
X9130000Y1565000D03*
X14730000Y1565000D03*
D19*
X64903200Y7475000D03*
X66599920Y7475000D03*
D60*
X47977600Y26400000D03*
X44472400Y26400000D03*
D14*
X4560000Y9236720D03*
X4560000Y7540000D03*
D58*
X2560000Y5440000D03*
X3560000Y5440000D03*
X4560000Y5440000D03*
X5560000Y5440000D03*
D59*
X1260000Y1565000D03*
X6860000Y1565000D03*
D40*
X26300000Y54775000D03*
D61*
X51609999Y30924999D03*
D62*
X51609999Y28384999D03*
X51609999Y25844999D03*
D19*
X1361640Y7480000D03*
X3058360Y7480000D03*
D58*
X50360000Y5434115D03*
X51360000Y5434115D03*
X52360000Y5434115D03*
X53360000Y5434115D03*
D59*
X49060000Y1559115D03*
X54660000Y1559115D03*
D58*
X58230000Y5435112D03*
X59230000Y5435112D03*
X60230000Y5435112D03*
X61230000Y5435112D03*
D59*
X56930000Y1560112D03*
X62530000Y1560112D03*
D14*
X21775000Y9236009D03*
X21775000Y7539289D03*
D58*
X26170000Y5436721D03*
X27170000Y5436721D03*
X28170000Y5436721D03*
X29170000Y5436721D03*
D59*
X24870000Y1561721D03*
X30470000Y1561721D03*
D14*
X53835000Y9232475D03*
X53835000Y7535755D03*
D61*
X51609999Y18849999D03*
D62*
X51609999Y16309999D03*
X51609999Y13769999D03*
D19*
X50401640Y61350000D03*
X52098360Y61350000D03*
X57032480Y7475112D03*
X58729200Y7475112D03*
D63*
X57724999Y18874999D03*
D64*
X57724999Y16334999D03*
X57724999Y13794999D03*
D14*
X52360000Y9229195D03*
X52360000Y7532475D03*
X60230000Y9233472D03*
X60230000Y7536752D03*
D63*
X57717499Y30934999D03*
D64*
X57717499Y28394999D03*
X57717499Y25854999D03*
D14*
X6035000Y9238360D03*
X6035000Y7541640D03*
D15*
X36193360Y9220000D03*
X34496640Y9220000D03*
D14*
X29645000Y9235081D03*
X29645000Y7538361D03*
D19*
X49160800Y7474115D03*
X50857520Y7474115D03*
D58*
X42490000Y5433893D03*
X43490000Y5433893D03*
X44490000Y5433893D03*
X45490000Y5433893D03*
D59*
X41190000Y1558893D03*
X46790000Y1558893D03*
D14*
X68100720Y9236640D03*
X68100720Y7539920D03*
D65*
X64465000Y48800000D03*
D66*
X57165000Y50900000D03*
D67*
X57164999Y46699999D03*
X51664999Y50899999D03*
X51664999Y46699999D03*
D19*
X57476640Y61350000D03*
X59173360Y61350000D03*
D68*
X32987500Y7890000D03*
X32987500Y7240000D03*
X32987500Y6590000D03*
X32987500Y5940000D03*
X32987500Y5290000D03*
X32987500Y4640000D03*
X32987500Y3990000D03*
X32987500Y3340000D03*
X32987500Y2690000D03*
X32987500Y2040000D03*
X32987500Y1390000D03*
X32987500Y740000D03*
X38712500Y740000D03*
X38712500Y1390000D03*
X38712500Y2040000D03*
X38712500Y2690000D03*
X38712500Y3340000D03*
X38712500Y3990000D03*
X38712500Y4640000D03*
X38712500Y5290000D03*
X38712500Y5940000D03*
X38712500Y6590000D03*
X38712500Y7240000D03*
X38712500Y7890000D03*
D19*
X9231640Y7480000D03*
X10928360Y7480000D03*
D14*
X13905000Y9238360D03*
X13905000Y7541640D03*
D15*
X42948360Y8980000D03*
X41251640Y8980000D03*
D14*
X45965000Y9232253D03*
X45965000Y7535533D03*
X20300000Y9236009D03*
X20300000Y7539289D03*
D15*
X26669200Y7476721D03*
X24972480Y7476721D03*
D58*
X66110000Y5435000D03*
X67110000Y5435000D03*
X68110000Y5435000D03*
X69110000Y5435000D03*
D59*
X64810000Y1560000D03*
X70410000Y1560000D03*
D19*
X41292480Y7473893D03*
X42989200Y7473893D03*
D69*
X52085000Y65920000D03*
X57865000Y65920000D03*
D70*
X50047400Y65420000D03*
D71*
X50654999Y65419999D03*
X59294999Y65419999D03*
D70*
X59902600Y65420000D03*
D72*
X50047400Y69600000D03*
D73*
X50654999Y69599999D03*
X59294999Y69599999D03*
D72*
X59902600Y69600000D03*
D74*
X58300000Y64518000D03*
X57500000Y64518000D03*
D75*
X56225000Y64518000D03*
X55225000Y64518000D03*
X54725000Y64518000D03*
X53725000Y64518000D03*
D74*
X52450000Y64518000D03*
X51650000Y64518000D03*
X51900000Y64518000D03*
X52700000Y64518000D03*
D75*
X53225000Y64518000D03*
X54225000Y64518000D03*
X55725000Y64518000D03*
X56725000Y64518000D03*
D74*
X57250000Y64518000D03*
X58050000Y64518000D03*
D14*
X69575720Y9233360D03*
X69575720Y7536640D03*
D76*
X49225000Y61350000D03*
D14*
X12430000Y9236720D03*
X12430000Y7540000D03*
D77*
X46475000Y15975000D03*
X46475000Y19480200D03*
D40*
X37715000Y52225000D03*
D19*
X31221640Y9220000D03*
X32918360Y9220000D03*
D14*
X61705000Y9233472D03*
X61705000Y7536752D03*
X44490000Y9230613D03*
X44490000Y7533893D03*
D58*
X18300000Y5437649D03*
X19300000Y5437649D03*
X20300000Y5437649D03*
X21300000Y5437649D03*
D59*
X17000000Y1562649D03*
X22600000Y1562649D03*
D78*
X65810000Y61620000D03*
X65810000Y70020000D03*
D39*
X61365000Y55400000D03*
X61365000Y42200000D03*
D66*
X57165000Y50900000D03*
D67*
X57164999Y46699999D03*
X51664999Y50899999D03*
X51664999Y46699999D03*
D77*
X43425000Y15975000D03*
X43425000Y19480200D03*
D79*
X45670000Y40830000D03*
X50100000Y44160000D03*
X44850000Y51730000D03*
X14015299Y24177800D03*
X55150000Y28385000D03*
X35940000Y30088000D03*
X20570000Y67818000D03*
X61490000Y30950000D03*
X60185000Y18845000D03*
X67805000Y17590000D03*
X20570000Y69084000D03*
X11035000Y61698000D03*
X65290000Y12515000D03*
X14855000Y59163000D03*
X69090000Y11235000D03*
X69080000Y32220000D03*
X60205000Y16295000D03*
X3400000Y65468000D03*
X34849102Y38502577D03*
X63985000Y20130000D03*
X35940000Y28945000D03*
X62760000Y12505000D03*
X65280000Y33500000D03*
X55185000Y23310000D03*
X60205000Y17565000D03*
X64005000Y15040000D03*
X13585000Y61718000D03*
X37210000Y28945000D03*
X64030000Y12505000D03*
X7230000Y65483000D03*
X61455000Y21390000D03*
X12325000Y59163000D03*
X11035000Y65508000D03*
X13575000Y64238000D03*
X53915000Y23310000D03*
D80*
X32580000Y44010000D03*
D79*
X9765000Y61698000D03*
X67830000Y29690000D03*
X57655000Y21375000D03*
X61490000Y29680000D03*
X5960000Y65483000D03*
X69090000Y29680000D03*
X28317000Y30095000D03*
X61480000Y32220000D03*
X13585000Y55353000D03*
X56400000Y21375000D03*
X20570000Y66548000D03*
X69090000Y12505000D03*
X61490000Y13775000D03*
X56430000Y11210000D03*
X34635525Y21610100D03*
X64030000Y13775000D03*
X62760000Y13775000D03*
X28317000Y28952000D03*
X32130000Y23235000D03*
D80*
X40174428Y9133880D03*
D79*
X29206000Y35175000D03*
X32130000Y28948000D03*
X8500000Y64213000D03*
X38480000Y30088000D03*
X70355000Y33490000D03*
X69115000Y23335000D03*
X61490000Y12505000D03*
X20323700Y65490519D03*
X23110000Y65147000D03*
X56425000Y33475000D03*
X69090000Y28410000D03*
X66535000Y17590000D03*
X65290000Y13785000D03*
X69055000Y21390000D03*
X17680000Y42740000D03*
X23070479Y45803479D03*
X4568000Y37587848D03*
X67825000Y33510000D03*
X12305000Y62968000D03*
X62735000Y16310000D03*
X21967000Y51685000D03*
X67855000Y24615000D03*
X22690000Y35050000D03*
X14855000Y60433000D03*
X27047000Y30095000D03*
X64005000Y16310000D03*
X70360000Y30950000D03*
X61465000Y16310000D03*
X11035000Y62968000D03*
X65265000Y17590000D03*
X58220000Y4230000D03*
X9765000Y64238000D03*
X62755000Y32220000D03*
X12461090Y45243100D03*
X61515000Y25875000D03*
X61455000Y20120000D03*
X65315000Y23345000D03*
X70360000Y28410000D03*
X22094000Y65147000D03*
X29587000Y30095000D03*
X60230000Y11220000D03*
X14845000Y62973000D03*
X58955000Y33475000D03*
X7230000Y62943000D03*
X60230000Y28395000D03*
X4905900Y23813898D03*
X64000000Y21400000D03*
X69055000Y20120000D03*
X65265000Y18860000D03*
X44700000Y28063000D03*
X66560000Y30960000D03*
X13585000Y60433000D03*
X70385000Y24605000D03*
X13585000Y59163000D03*
X70355000Y32220000D03*
X60230000Y27125000D03*
X62755000Y33490000D03*
X35940000Y24378000D03*
X64055000Y24605000D03*
X61515000Y24605000D03*
X67810000Y30970000D03*
X64030000Y28410000D03*
X64030000Y29680000D03*
X67810000Y32240000D03*
X16603499Y22239588D03*
X36826000Y45716000D03*
X60210000Y30945000D03*
X10420000Y4215669D03*
X67830000Y11245000D03*
X66530000Y21400000D03*
X70330000Y21390000D03*
X70330000Y20120000D03*
X2560000Y4220000D03*
X13575000Y62968000D03*
X67855000Y23345000D03*
X63985000Y18860000D03*
X36826000Y44700000D03*
X55160000Y11210000D03*
X20570000Y48129000D03*
X13585000Y57893000D03*
X70335000Y16310000D03*
X15064589Y21704589D03*
X53890000Y11210000D03*
X57680000Y33475000D03*
X61515000Y23335000D03*
X42489227Y4220000D03*
X34670000Y30091000D03*
X57690000Y11220000D03*
X16115000Y65498000D03*
X69065000Y18850000D03*
X66560000Y12515000D03*
X43684000Y28063000D03*
X11035000Y64238000D03*
X66560000Y13785000D03*
X67785000Y18870000D03*
X8500000Y61673000D03*
X65255000Y21400000D03*
X4695000Y49145000D03*
X61490000Y27140000D03*
X64030000Y27140000D03*
X62785000Y24605000D03*
X30860000Y24382000D03*
X13585000Y56623000D03*
X64025000Y33500000D03*
X69080000Y33490000D03*
X69090000Y27140000D03*
X20580000Y24670000D03*
X57715000Y23320000D03*
X66535000Y16320000D03*
X7230000Y64213000D03*
X66560000Y15055000D03*
X55135000Y16285000D03*
X61465000Y18850000D03*
X44940000Y20738000D03*
X65315000Y24615000D03*
X20653228Y22336328D03*
X61490000Y28410000D03*
X12325000Y55353000D03*
X12305000Y65508000D03*
X8500000Y65483000D03*
X65290000Y29690000D03*
X70360000Y13775000D03*
X56455000Y23310000D03*
X14845000Y65498000D03*
X62735000Y17580000D03*
X25777000Y28952000D03*
X12305000Y64238000D03*
X62785000Y27145000D03*
X12305000Y61698000D03*
X70335000Y17580000D03*
X66585000Y25885000D03*
X66555000Y32230000D03*
X64005000Y17580000D03*
X38480000Y28945000D03*
X60255000Y25860000D03*
X16115000Y62973000D03*
X7489000Y49399000D03*
X32130000Y30091000D03*
X60205000Y15025000D03*
X33400000Y30091000D03*
X30860000Y23235000D03*
X43352843Y34630393D03*
X33400000Y28948000D03*
X37207000Y24380000D03*
D80*
X5971100Y49346601D03*
D79*
X62760000Y30950000D03*
X62760000Y28410000D03*
X17385000Y65498000D03*
X69090000Y30950000D03*
X62785000Y23335000D03*
X20570000Y70354000D03*
X66530000Y20130000D03*
X70360000Y12505000D03*
X25380000Y16970000D03*
X61480000Y33490000D03*
X65255000Y20130000D03*
X69115000Y25875000D03*
X61465000Y15040000D03*
X50340000Y4230000D03*
X65280000Y32230000D03*
X67830000Y12515000D03*
X62785000Y25875000D03*
X70360000Y29680000D03*
X30857000Y28952000D03*
X9770000Y62943000D03*
X64030000Y11235000D03*
X8568500Y49399561D03*
X20570000Y71624000D03*
X16115000Y64248000D03*
X12315000Y60433000D03*
X53880000Y28385000D03*
X60255000Y23320000D03*
X65290000Y11245000D03*
X60225000Y33485000D03*
X34670000Y24378000D03*
X22094000Y71624000D03*
X62760000Y11235000D03*
X67830000Y27150000D03*
X64010000Y30960000D03*
X70385000Y25875000D03*
X12325000Y57893000D03*
X22957600Y51685000D03*
X8500000Y62943000D03*
X32130000Y22088000D03*
X62760000Y15045000D03*
X12325000Y56623000D03*
X4680000Y65478000D03*
X66560000Y29690000D03*
X64010000Y32230000D03*
X34670000Y28948000D03*
X65315000Y25885000D03*
X35774009Y5859842D03*
X65290000Y27150000D03*
X14845000Y64248000D03*
X26170000Y4216721D03*
X60230000Y29665000D03*
X4695000Y44192000D03*
X9765000Y65508000D03*
X7230000Y61673000D03*
X62730000Y21390000D03*
X60200000Y21385000D03*
X44812500Y56173000D03*
X53880000Y33465000D03*
X67805000Y15050000D03*
X69090000Y13775000D03*
X9609195Y25870474D03*
X62760000Y29680000D03*
X60255000Y24590000D03*
X62730000Y20120000D03*
X67830000Y28420000D03*
X69065000Y15040000D03*
X53855000Y21365000D03*
X58930000Y21375000D03*
X32130000Y24381000D03*
X69065000Y16310000D03*
X39154589Y34343411D03*
X14855000Y57893000D03*
X55130000Y21365000D03*
X4695000Y45462000D03*
X70335000Y18850000D03*
X60230000Y13760000D03*
X55155000Y33465000D03*
X7225961Y41504039D03*
X66555000Y33500000D03*
X60230000Y12490000D03*
X14855000Y61718000D03*
X65290000Y28420000D03*
X70385000Y23335000D03*
X25015000Y48065500D03*
X22094000Y70354000D03*
X61465000Y17580000D03*
X30860000Y22088000D03*
X66585000Y24615000D03*
X66560000Y11245000D03*
X644186Y30348000D03*
X67830000Y13785000D03*
X67800000Y21410000D03*
X58960000Y11220000D03*
X69115000Y24605000D03*
X58985000Y23320000D03*
X66100000Y4230000D03*
X29587000Y28952000D03*
X60185000Y20115000D03*
X16125000Y61703000D03*
X37210000Y30088000D03*
X66585000Y27155000D03*
X70360000Y11235000D03*
X67855000Y25885000D03*
X61490000Y11235000D03*
X69065000Y17580000D03*
X64055000Y25875000D03*
X66535000Y18860000D03*
X65265000Y16320000D03*
X67785000Y20140000D03*
X70360000Y15045000D03*
X27047000Y28952000D03*
X66585000Y23345000D03*
X30857000Y30095000D03*
X36336128Y16343872D03*
X67805000Y16320000D03*
X62735000Y18850000D03*
X70385000Y27145000D03*
X18298234Y4212649D03*
X65290000Y30960000D03*
X25777000Y30095000D03*
X64055000Y23335000D03*
X60210000Y32215000D03*
X66560000Y28420000D03*
X29590000Y24378000D03*
X13575000Y65508000D03*
X65265000Y15050000D03*
X53865000Y16285000D03*
X18851351Y23366097D03*
D80*
X14474000Y42797000D03*
D79*
X40690000Y32256000D03*
X8180000Y50860000D03*
X44300000Y13730000D03*
X18590000Y17500000D03*
X18500000Y36440000D03*
X14380071Y38372992D03*
X43430000Y14603000D03*
D80*
X20840000Y15280551D03*
X1373596Y35598933D03*
X20208300Y21020000D03*
X4550000Y62736000D03*
X36826000Y50544000D03*
X29714000Y49020000D03*
D79*
X33970000Y49020000D03*
X38477000Y49020000D03*
D81*
X25777000Y49274000D03*
D79*
X41364900Y37840000D03*
D80*
X57375000Y63700000D03*
D79*
X32480000Y20380000D03*
D80*
X52575000Y63700000D03*
X34675000Y40000000D03*
X10783480Y41634700D03*
X12202865Y23472700D03*
X4550000Y57656000D03*
D79*
X46770000Y32764000D03*
X48775000Y17775000D03*
X46770000Y34796000D03*
X46770000Y33780000D03*
D80*
X12548555Y49657751D03*
X37630000Y7240000D03*
X32287950Y8614224D03*
X4550000Y60196000D03*
X10159519Y13895438D03*
X10189840Y12975717D03*
X4550000Y61466000D03*
X4550000Y56386000D03*
X35145630Y8547045D03*
D79*
X21020000Y35220000D03*
X17649000Y38987000D03*
D80*
X16633000Y39367980D03*
X16633000Y42289000D03*
X17554700Y17500000D03*
X11840211Y17500211D03*
X4550000Y58926000D03*
X27948670Y12640081D03*
X7361100Y42670000D03*
X2479143Y40010000D03*
X17000543Y46411091D03*
X23900000Y21314700D03*
X12401455Y50997029D03*
X11847164Y13987300D03*
X10600358Y51399500D03*
X13438190Y45337000D03*
X13440000Y36790000D03*
X6208900Y33188293D03*
X6210000Y29820300D03*
X9793926Y49269812D03*
X11397444Y51785274D03*
X12674333Y13641251D03*
X26284996Y37780500D03*
X4876919Y52140990D03*
X27174000Y37780500D03*
X5240429Y53043317D03*
X30873671Y37471275D03*
X4003187Y52061931D03*
X31750000Y37430000D03*
X16184289Y51771382D03*
X32640000Y37429534D03*
X7133800Y50463101D03*
X5712747Y31897853D03*
X7000251Y29439300D03*
X9394000Y45972000D03*
X10719095Y27241700D03*
X6600000Y23366000D03*
X9336254Y22322491D03*
X3622686Y48766000D03*
X5965000Y46226000D03*
X8620300Y25430000D03*
X5838000Y26540998D03*
X24869536Y31110464D03*
X38714930Y31113000D03*
X4550000Y55100000D03*
D79*
X43912500Y58900000D03*
D80*
X15427114Y55370000D03*
X34652156Y43340000D03*
X16150053Y52648526D03*
X33642256Y42564031D03*
X16116035Y53525679D03*
X33725383Y41690676D03*
X15418726Y56251734D03*
X33568163Y40029483D03*
X11808376Y50349872D03*
X22126611Y40740917D03*
X25559530Y50187798D03*
X24666301Y50321179D03*
D79*
X33905000Y71245000D03*
X30095000Y71245000D03*
X28190000Y69340000D03*
X33905000Y67435000D03*
X33905000Y59815000D03*
X32000000Y69340000D03*
X30095000Y63625000D03*
X30095000Y67435000D03*
X32000000Y61720000D03*
X28190000Y57910000D03*
X35810000Y57910000D03*
X38350000Y69340000D03*
X32000000Y65530000D03*
X25650000Y69340000D03*
X36445000Y64260000D03*
X35810000Y69340000D03*
X32000000Y57910000D03*
X33905000Y63625000D03*
X27555000Y64260000D03*
X30095000Y59815000D03*
X26920000Y71245000D03*
X37080000Y71245000D03*
D80*
X4155440Y31450000D03*
X4980000Y35538700D03*
X40304333Y8266251D03*
X34800000Y6590000D03*
X41264900Y40018517D03*
X41979830Y23432698D03*
D79*
X43912500Y54450000D03*
X49710000Y35720000D03*
D80*
X41264900Y39129118D03*
X41979330Y24314690D03*
X34090000Y5940000D03*
X4560000Y4290000D03*
X34790000Y5290000D03*
X5560000Y4290000D03*
X12430000Y4290000D03*
X34090000Y4640000D03*
X34790000Y3990000D03*
X13430000Y4290000D03*
X34090000Y3340000D03*
X20308234Y4290126D03*
X34790000Y2690000D03*
X21300000Y4290126D03*
X34090000Y2040000D03*
X28170000Y4286721D03*
X29170000Y4286721D03*
X34790000Y1390000D03*
X37600000Y740000D03*
X44490000Y4283893D03*
X36900000Y1390000D03*
X45490000Y4283893D03*
X52360000Y4284115D03*
X37600000Y2040000D03*
X53360000Y4284115D03*
X36900000Y2690000D03*
X37600000Y3340000D03*
X60230000Y4285112D03*
X61230000Y4285112D03*
X36900000Y3990000D03*
X68110000Y4285000D03*
X37600000Y4640000D03*
X36900000Y5290000D03*
X69110000Y4285000D03*
D82*
X48650000Y72773492D02*
X49770000Y71659000D01*
X48650000Y72773492D02*
X19554000Y72769000D01*
X-4000Y66673000D02*
X0Y0D01*
X61200000Y72675000D02*
X71675000Y72675000D01*
X19554000Y66673000D02*
X19554000Y72769000D01*
X60184000Y71659000D02*
X61200000Y72675000D01*
X49770000Y71659000D02*
X60184000Y71659000D01*
X71675000Y72675000D02*
X71675000Y0D01*
X-4000Y66673000D02*
X19554000Y66673000D01*
X0Y0D02*
X71675000Y0D01*
M02*
