%TF.GenerationSoftware,KiCad,Pcbnew,(7.0.0)*%
%TF.CreationDate,2023-03-12T03:28:47+03:00*%
%TF.ProjectId,ESP32-DEVKIT-L,45535033-322d-4444-9556-4b49542d4c2e,1*%
%TF.SameCoordinates,PX4260300PY8558f68*%
%TF.FileFunction,Soldermask,Bot*%
%TF.FilePolarity,Negative*%
%FSLAX46Y46*%
G04 Gerber Fmt 4.6, Leading zero omitted, Abs format (unit mm)*
G04 Created by KiCad (PCBNEW (7.0.0)) date 2023-03-12 03:28:47*
%MOMM*%
%LPD*%
G01*
G04 APERTURE LIST*
G04 Aperture macros list*
%AMRoundRect*
0 Rectangle with rounded corners*
0 $1 Rounding radius*
0 $2 $3 $4 $5 $6 $7 $8 $9 X,Y pos of 4 corners*
0 Add a 4 corners polygon primitive as box body*
4,1,4,$2,$3,$4,$5,$6,$7,$8,$9,$2,$3,0*
0 Add four circle primitives for the rounded corners*
1,1,$1+$1,$2,$3*
1,1,$1+$1,$4,$5*
1,1,$1+$1,$6,$7*
1,1,$1+$1,$8,$9*
0 Add four rect primitives between the rounded corners*
20,1,$1+$1,$2,$3,$4,$5,0*
20,1,$1+$1,$4,$5,$6,$7,0*
20,1,$1+$1,$6,$7,$8,$9,0*
20,1,$1+$1,$8,$9,$2,$3,0*%
G04 Aperture macros list end*
%ADD10C,2.101600*%
%ADD11R,1.422400X1.422400*%
%ADD12C,3.200000*%
%ADD13C,1.410000*%
%ADD14C,1.650000*%
%ADD15C,2.700000*%
%ADD16C,1.200000*%
%ADD17C,6.300000*%
%ADD18RoundRect,0.050800X-0.889000X-0.889000X0.889000X-0.889000X0.889000X0.889000X-0.889000X0.889000X0*%
%ADD19C,1.879600*%
%ADD20RoundRect,0.050800X0.800100X-0.584200X0.800100X0.584200X-0.800100X0.584200X-0.800100X-0.584200X0*%
%ADD21R,2.300000X1.500000*%
%ADD22O,2.300000X1.500000*%
%ADD23R,2.500000X1.700000*%
%ADD24O,2.500000X1.700000*%
%ADD25C,3.000000*%
%ADD26RoundRect,0.250001X-1.599999X1.099999X-1.599999X-1.099999X1.599999X-1.099999X1.599999X1.099999X0*%
%ADD27O,3.700000X2.700000*%
%ADD28C,0.701600*%
%ADD29O,1.301600X2.301600*%
%ADD30O,1.401600X2.101600*%
%ADD31C,0.900000*%
%ADD32C,0.700000*%
%ADD33C,0.750000*%
%TA.AperFunction,Profile*%
%ADD34C,0.254000*%
%TD*%
G04 APERTURE END LIST*
D10*
X9410000Y57742000D03*
D11*
X30348999Y41780999D03*
D12*
X37715000Y61466000D03*
X26285000Y61466000D03*
D13*
X36455000Y54766000D03*
X35185000Y52226000D03*
X33915000Y54766000D03*
X32645000Y52226000D03*
X31375000Y54766000D03*
X30105000Y52226000D03*
X28835000Y54766000D03*
X27565000Y52226000D03*
D14*
X27930000Y66214500D03*
X38610000Y66214500D03*
D15*
X39800000Y58416000D03*
X24200000Y58416000D03*
D14*
X25390000Y66214500D03*
X36070000Y66214500D03*
D16*
X44319000Y68705000D03*
X45081000Y70356000D03*
X45081000Y66927000D03*
X46732000Y71118000D03*
D17*
X46732000Y68705000D03*
D16*
X46732000Y66292000D03*
X48383000Y70356000D03*
X48383000Y67054000D03*
X49145000Y68705000D03*
D18*
X1266000Y11809000D03*
D19*
X3806000Y11809000D03*
X6346000Y11809000D03*
X8886000Y11809000D03*
X11426000Y11809000D03*
X13966000Y11809000D03*
X16506000Y11809000D03*
X19046000Y11809000D03*
X21586000Y11809000D03*
X24126000Y11809000D03*
X26666000Y11809000D03*
X29206000Y11809000D03*
X31746000Y11809000D03*
X34286000Y11809000D03*
X36826000Y11809000D03*
X39366000Y11809000D03*
X41906000Y11809000D03*
X44446000Y11809000D03*
X46986000Y11809000D03*
X49526000Y11809000D03*
D20*
X46470000Y52928000D03*
X46470000Y52928000D03*
X46470000Y54452000D03*
D13*
X26300000Y54775000D03*
D21*
X51609999Y30924999D03*
D22*
X51609999Y28384999D03*
X51609999Y25844999D03*
D21*
X51609999Y18849999D03*
D22*
X51609999Y16309999D03*
X51609999Y13769999D03*
D23*
X57724999Y18874999D03*
D24*
X57724999Y16334999D03*
X57724999Y13794999D03*
D23*
X57717499Y30934999D03*
D24*
X57717499Y28394999D03*
X57717499Y25854999D03*
D25*
X64465000Y48800000D03*
D26*
X57165000Y50900000D03*
D27*
X57164999Y46699999D03*
X51664999Y50899999D03*
X51664999Y46699999D03*
D28*
X52085000Y65920000D03*
X57865000Y65920000D03*
D29*
X50654999Y65419999D03*
X59294999Y65419999D03*
D30*
X50654999Y69599999D03*
X59294999Y69599999D03*
D20*
X36135488Y40063500D03*
X36135488Y38539500D03*
X36135488Y38539500D03*
D13*
X37715000Y52225000D03*
D12*
X61365000Y55400000D03*
X61365000Y42200000D03*
D26*
X57165000Y50900000D03*
D27*
X57164999Y46699999D03*
X51664999Y50899999D03*
X51664999Y46699999D03*
D31*
X45670000Y40830000D03*
X50100000Y44160000D03*
X44850000Y51730000D03*
X14015299Y24177800D03*
X55150000Y28385000D03*
X35940000Y30088000D03*
X20570000Y67818000D03*
X61490000Y30950000D03*
X60185000Y18845000D03*
X67805000Y17590000D03*
X20570000Y69084000D03*
X11035000Y61698000D03*
X65290000Y12515000D03*
X14855000Y59163000D03*
X69090000Y11235000D03*
X69080000Y32220000D03*
X60205000Y16295000D03*
X3400000Y65468000D03*
X34849102Y38502577D03*
X63985000Y20130000D03*
X35940000Y28945000D03*
X62760000Y12505000D03*
X65280000Y33500000D03*
X55185000Y23310000D03*
X60205000Y17565000D03*
X64005000Y15040000D03*
X13585000Y61718000D03*
X37210000Y28945000D03*
X64030000Y12505000D03*
X7230000Y65483000D03*
X61455000Y21390000D03*
X12325000Y59163000D03*
X11035000Y65508000D03*
X13575000Y64238000D03*
X53915000Y23310000D03*
D32*
X32580000Y44010000D03*
D31*
X9765000Y61698000D03*
X67830000Y29690000D03*
X57655000Y21375000D03*
X61490000Y29680000D03*
X5960000Y65483000D03*
X69090000Y29680000D03*
X28317000Y30095000D03*
X61480000Y32220000D03*
X13585000Y55353000D03*
X56400000Y21375000D03*
X20570000Y66548000D03*
X69090000Y12505000D03*
X61490000Y13775000D03*
X56430000Y11210000D03*
X34635525Y21610100D03*
X64030000Y13775000D03*
X62760000Y13775000D03*
X28317000Y28952000D03*
X32130000Y23235000D03*
D32*
X40174428Y9133880D03*
D31*
X29206000Y35175000D03*
X32130000Y28948000D03*
X8500000Y64213000D03*
X38480000Y30088000D03*
X70355000Y33490000D03*
X69115000Y23335000D03*
X61490000Y12505000D03*
X20323700Y65490519D03*
X23110000Y65147000D03*
X56425000Y33475000D03*
X69090000Y28410000D03*
X66535000Y17590000D03*
X65290000Y13785000D03*
X69055000Y21390000D03*
X17680000Y42740000D03*
X23070479Y45803479D03*
X4568000Y37587848D03*
X67825000Y33510000D03*
X12305000Y62968000D03*
X62735000Y16310000D03*
X21967000Y51685000D03*
X67855000Y24615000D03*
X22690000Y35050000D03*
X14855000Y60433000D03*
X27047000Y30095000D03*
X64005000Y16310000D03*
X70360000Y30950000D03*
X61465000Y16310000D03*
X11035000Y62968000D03*
X65265000Y17590000D03*
X58220000Y4230000D03*
X9765000Y64238000D03*
X62755000Y32220000D03*
X12461090Y45243100D03*
X61515000Y25875000D03*
X61455000Y20120000D03*
X65315000Y23345000D03*
X70360000Y28410000D03*
X22094000Y65147000D03*
X29587000Y30095000D03*
X60230000Y11220000D03*
X14845000Y62973000D03*
X58955000Y33475000D03*
X7230000Y62943000D03*
X60230000Y28395000D03*
X4905900Y23813898D03*
X64000000Y21400000D03*
X69055000Y20120000D03*
X65265000Y18860000D03*
X44700000Y28063000D03*
X66560000Y30960000D03*
X13585000Y60433000D03*
X70385000Y24605000D03*
X13585000Y59163000D03*
X70355000Y32220000D03*
X60230000Y27125000D03*
X62755000Y33490000D03*
X35940000Y24378000D03*
X64055000Y24605000D03*
X61515000Y24605000D03*
X67810000Y30970000D03*
X64030000Y28410000D03*
X64030000Y29680000D03*
X67810000Y32240000D03*
X16603499Y22239588D03*
X36826000Y45716000D03*
X60210000Y30945000D03*
X10420000Y4215669D03*
X67830000Y11245000D03*
X66530000Y21400000D03*
X70330000Y21390000D03*
X70330000Y20120000D03*
X2560000Y4220000D03*
X13575000Y62968000D03*
X67855000Y23345000D03*
X63985000Y18860000D03*
X36826000Y44700000D03*
X55160000Y11210000D03*
X20570000Y48129000D03*
X13585000Y57893000D03*
X70335000Y16310000D03*
X15064589Y21704589D03*
X53890000Y11210000D03*
X57680000Y33475000D03*
X61515000Y23335000D03*
X42489227Y4220000D03*
X34670000Y30091000D03*
X57690000Y11220000D03*
X16115000Y65498000D03*
X69065000Y18850000D03*
X66560000Y12515000D03*
X43684000Y28063000D03*
X11035000Y64238000D03*
X66560000Y13785000D03*
X67785000Y18870000D03*
X8500000Y61673000D03*
X65255000Y21400000D03*
X4695000Y49145000D03*
X61490000Y27140000D03*
X64030000Y27140000D03*
X62785000Y24605000D03*
X30860000Y24382000D03*
X13585000Y56623000D03*
X64025000Y33500000D03*
X69080000Y33490000D03*
X69090000Y27140000D03*
X20580000Y24670000D03*
X57715000Y23320000D03*
X66535000Y16320000D03*
X7230000Y64213000D03*
X66560000Y15055000D03*
X55135000Y16285000D03*
X61465000Y18850000D03*
X44940000Y20738000D03*
X65315000Y24615000D03*
X20653228Y22336328D03*
X61490000Y28410000D03*
X12325000Y55353000D03*
X12305000Y65508000D03*
X8500000Y65483000D03*
X65290000Y29690000D03*
X70360000Y13775000D03*
X56455000Y23310000D03*
X14845000Y65498000D03*
X62735000Y17580000D03*
X25777000Y28952000D03*
X12305000Y64238000D03*
X62785000Y27145000D03*
X12305000Y61698000D03*
X70335000Y17580000D03*
X66585000Y25885000D03*
X66555000Y32230000D03*
X64005000Y17580000D03*
X38480000Y28945000D03*
X60255000Y25860000D03*
X16115000Y62973000D03*
X7489000Y49399000D03*
X32130000Y30091000D03*
X60205000Y15025000D03*
X33400000Y30091000D03*
X30860000Y23235000D03*
X43352843Y34630393D03*
X33400000Y28948000D03*
X37207000Y24380000D03*
D32*
X5971100Y49346601D03*
D31*
X62760000Y30950000D03*
X62760000Y28410000D03*
X17385000Y65498000D03*
X69090000Y30950000D03*
X62785000Y23335000D03*
X20570000Y70354000D03*
X66530000Y20130000D03*
X70360000Y12505000D03*
X25380000Y16970000D03*
X61480000Y33490000D03*
X65255000Y20130000D03*
X69115000Y25875000D03*
X61465000Y15040000D03*
X50340000Y4230000D03*
X65280000Y32230000D03*
X67830000Y12515000D03*
X62785000Y25875000D03*
X70360000Y29680000D03*
X30857000Y28952000D03*
X9770000Y62943000D03*
X64030000Y11235000D03*
X8568500Y49399561D03*
X20570000Y71624000D03*
X16115000Y64248000D03*
X12315000Y60433000D03*
X53880000Y28385000D03*
X60255000Y23320000D03*
X65290000Y11245000D03*
X60225000Y33485000D03*
X34670000Y24378000D03*
X22094000Y71624000D03*
X62760000Y11235000D03*
X67830000Y27150000D03*
X64010000Y30960000D03*
X70385000Y25875000D03*
X12325000Y57893000D03*
X22957600Y51685000D03*
X8500000Y62943000D03*
X32130000Y22088000D03*
X62760000Y15045000D03*
X12325000Y56623000D03*
X4680000Y65478000D03*
X66560000Y29690000D03*
X64010000Y32230000D03*
X34670000Y28948000D03*
X65315000Y25885000D03*
X35774009Y5859842D03*
X65290000Y27150000D03*
X14845000Y64248000D03*
X26170000Y4216721D03*
X60230000Y29665000D03*
X4695000Y44192000D03*
X9765000Y65508000D03*
X7230000Y61673000D03*
X62730000Y21390000D03*
X60200000Y21385000D03*
X44812500Y56173000D03*
X53880000Y33465000D03*
X67805000Y15050000D03*
X69090000Y13775000D03*
X9609195Y25870474D03*
X62760000Y29680000D03*
X60255000Y24590000D03*
X62730000Y20120000D03*
X67830000Y28420000D03*
X69065000Y15040000D03*
X53855000Y21365000D03*
X58930000Y21375000D03*
X32130000Y24381000D03*
X69065000Y16310000D03*
X39154589Y34343411D03*
X14855000Y57893000D03*
X55130000Y21365000D03*
X4695000Y45462000D03*
X70335000Y18850000D03*
X60230000Y13760000D03*
X55155000Y33465000D03*
X7225961Y41504039D03*
X66555000Y33500000D03*
X60230000Y12490000D03*
X14855000Y61718000D03*
X65290000Y28420000D03*
X70385000Y23335000D03*
X25015000Y48065500D03*
X22094000Y70354000D03*
X61465000Y17580000D03*
X30860000Y22088000D03*
X66585000Y24615000D03*
X66560000Y11245000D03*
X644186Y30348000D03*
X67830000Y13785000D03*
X67800000Y21410000D03*
X58960000Y11220000D03*
X69115000Y24605000D03*
X58985000Y23320000D03*
X66100000Y4230000D03*
X29587000Y28952000D03*
X60185000Y20115000D03*
X16125000Y61703000D03*
X37210000Y30088000D03*
X66585000Y27155000D03*
X70360000Y11235000D03*
X67855000Y25885000D03*
X61490000Y11235000D03*
X69065000Y17580000D03*
X64055000Y25875000D03*
X66535000Y18860000D03*
X65265000Y16320000D03*
X67785000Y20140000D03*
X70360000Y15045000D03*
X27047000Y28952000D03*
X66585000Y23345000D03*
X30857000Y30095000D03*
X36336128Y16343872D03*
X67805000Y16320000D03*
X62735000Y18850000D03*
X70385000Y27145000D03*
X18298234Y4212649D03*
X65290000Y30960000D03*
X25777000Y30095000D03*
X64055000Y23335000D03*
X60210000Y32215000D03*
X66560000Y28420000D03*
X29590000Y24378000D03*
X13575000Y65508000D03*
X65265000Y15050000D03*
X53865000Y16285000D03*
X18851351Y23366097D03*
D32*
X14474000Y42797000D03*
D31*
X40690000Y32256000D03*
X8180000Y50860000D03*
X44300000Y13730000D03*
X18590000Y17500000D03*
X18500000Y36440000D03*
X14380071Y38372992D03*
X43430000Y14603000D03*
D32*
X20840000Y15280551D03*
X1373596Y35598933D03*
X20208300Y21020000D03*
X4550000Y62736000D03*
X36826000Y50544000D03*
X29714000Y49020000D03*
D31*
X33970000Y49020000D03*
X38477000Y49020000D03*
D33*
X25777000Y49274000D03*
D31*
X41364900Y37840000D03*
D32*
X57375000Y63700000D03*
D31*
X32480000Y20380000D03*
D32*
X52575000Y63700000D03*
X34675000Y40000000D03*
X10783480Y41634700D03*
X12202865Y23472700D03*
X4550000Y57656000D03*
D31*
X46770000Y32764000D03*
X48775000Y17775000D03*
X46770000Y34796000D03*
X46770000Y33780000D03*
D32*
X12548555Y49657751D03*
X37630000Y7240000D03*
X32287950Y8614224D03*
X4550000Y60196000D03*
X10159519Y13895438D03*
X10189840Y12975717D03*
X4550000Y61466000D03*
X4550000Y56386000D03*
X35145630Y8547045D03*
D31*
X21020000Y35220000D03*
X17649000Y38987000D03*
D32*
X16633000Y39367980D03*
X16633000Y42289000D03*
X17554700Y17500000D03*
X11840211Y17500211D03*
X4550000Y58926000D03*
X27948670Y12640081D03*
X7361100Y42670000D03*
X2479143Y40010000D03*
X17000543Y46411091D03*
X23900000Y21314700D03*
X12401455Y50997029D03*
X11847164Y13987300D03*
X10600358Y51399500D03*
X13438190Y45337000D03*
X13440000Y36790000D03*
X6208900Y33188293D03*
X6210000Y29820300D03*
X9793926Y49269812D03*
X11397444Y51785274D03*
X12674333Y13641251D03*
X26284996Y37780500D03*
X4876919Y52140990D03*
X27174000Y37780500D03*
X5240429Y53043317D03*
X30873671Y37471275D03*
X4003187Y52061931D03*
X31750000Y37430000D03*
X16184289Y51771382D03*
X32640000Y37429534D03*
X7133800Y50463101D03*
X5712747Y31897853D03*
X7000251Y29439300D03*
X9394000Y45972000D03*
X10719095Y27241700D03*
X6600000Y23366000D03*
X9336254Y22322491D03*
X3622686Y48766000D03*
X5965000Y46226000D03*
X8620300Y25430000D03*
X5838000Y26540998D03*
X24869536Y31110464D03*
X38714930Y31113000D03*
X4550000Y55100000D03*
D31*
X43912500Y58900000D03*
D32*
X15427114Y55370000D03*
X34652156Y43340000D03*
X16150053Y52648526D03*
X33642256Y42564031D03*
X16116035Y53525679D03*
X33725383Y41690676D03*
X15418726Y56251734D03*
X33568163Y40029483D03*
X11808376Y50349872D03*
X22126611Y40740917D03*
X25559530Y50187798D03*
X24666301Y50321179D03*
D31*
X33905000Y71245000D03*
X30095000Y71245000D03*
X28190000Y69340000D03*
X33905000Y67435000D03*
X33905000Y59815000D03*
X32000000Y69340000D03*
X30095000Y63625000D03*
X30095000Y67435000D03*
X32000000Y61720000D03*
X28190000Y57910000D03*
X35810000Y57910000D03*
X38350000Y69340000D03*
X32000000Y65530000D03*
X25650000Y69340000D03*
X36445000Y64260000D03*
X35810000Y69340000D03*
X32000000Y57910000D03*
X33905000Y63625000D03*
X27555000Y64260000D03*
X30095000Y59815000D03*
X26920000Y71245000D03*
X37080000Y71245000D03*
D32*
X4155440Y31450000D03*
X4980000Y35538700D03*
X40304333Y8266251D03*
X34800000Y6590000D03*
X41264900Y40018517D03*
X41979830Y23432698D03*
D31*
X43912500Y54450000D03*
X49710000Y35720000D03*
D32*
X41264900Y39129118D03*
X41979330Y24314690D03*
X34090000Y5940000D03*
X4560000Y4290000D03*
X34790000Y5290000D03*
X5560000Y4290000D03*
X12430000Y4290000D03*
X34090000Y4640000D03*
X34790000Y3990000D03*
X13430000Y4290000D03*
X34090000Y3340000D03*
X20308234Y4290126D03*
X34790000Y2690000D03*
X21300000Y4290126D03*
X34090000Y2040000D03*
X28170000Y4286721D03*
X29170000Y4286721D03*
X34790000Y1390000D03*
X37600000Y740000D03*
X44490000Y4283893D03*
X36900000Y1390000D03*
X45490000Y4283893D03*
X52360000Y4284115D03*
X37600000Y2040000D03*
X53360000Y4284115D03*
X36900000Y2690000D03*
X37600000Y3340000D03*
X60230000Y4285112D03*
X61230000Y4285112D03*
X36900000Y3990000D03*
X68110000Y4285000D03*
X37600000Y4640000D03*
X36900000Y5290000D03*
X69110000Y4285000D03*
D34*
X48650000Y72773492D02*
X49770000Y71659000D01*
X48650000Y72773492D02*
X19554000Y72769000D01*
X-4000Y66673000D02*
X0Y0D01*
X61200000Y72675000D02*
X71675000Y72675000D01*
X19554000Y66673000D02*
X19554000Y72769000D01*
X60184000Y71659000D02*
X61200000Y72675000D01*
X49770000Y71659000D02*
X60184000Y71659000D01*
X71675000Y72675000D02*
X71675000Y0D01*
X-4000Y66673000D02*
X19554000Y66673000D01*
X0Y0D02*
X71675000Y0D01*
M02*
